<svg xmlns="http://www.w3.org/2000/svg" viewBox="0 0 750 500"><g id="freepik--background-complete--inject-2"><rect x="60.9" y="304.36" width="26.48" height="11.19" style="fill:#ebebeb"></rect><rect x="46.13" y="318.47" width="26.48" height="11.19" style="fill:#ebebeb"></rect><rect x="394.57" y="51.19" width="26.48" height="11.19" style="fill:#ebebeb"></rect><rect x="379.8" y="65.3" width="26.48" height="11.19" style="fill:#ebebeb"></rect><rect x="365.09" y="51.19" width="26.48" height="11.19" style="fill:#ebebeb"></rect><rect x="677.39" y="318.47" width="26.48" height="11.19" style="fill:#ebebeb"></rect><rect x="662.62" y="65.3" width="26.48" height="11.19" style="fill:#ebebeb"></rect><rect x="677.39" y="79.41" width="26.48" height="11.19" style="fill:#ebebeb"></rect><rect x="152.33" y="154.93" width="26.48" height="11.19" style="fill:#ebebeb"></rect><rect x="167.1" y="169.04" width="26.48" height="11.19" style="fill:#ebebeb"></rect><rect x="60.9" y="65.3" width="26.48" height="11.19" style="fill:#ebebeb"></rect></g><g id="freepik--Shadow--inject-2"><ellipse cx="375" cy="456.55" rx="302.1" ry="17.07" style="fill:#ebebeb"></ellipse></g><g id="freepik--Floor--inject-2"><polygon points="61.14 416.48 139.6 416.24 218.07 416.15 375 415.98 531.93 416.15 610.4 416.23 688.86 416.48 610.4 416.72 531.93 416.81 375 416.98 218.07 416.81 139.6 416.72 61.14 416.48" style="fill:#263238"></polygon></g><g id="freepik--Windows--inject-2"><path d="M609.62,132.6V262.29H487.46V132.6c0-18.1,2.36-44,13.63-64.76C511.7,48.31,528.11,38,548.54,38a55.79,55.79,0,0,1,9.42.78c.55.09,1.09.19,1.64.3s1.17.25,1.75.39c.77.17,1.53.37,2.28.59C577.26,44,588.13,53.31,596,67.84c.62,1.12,1.21,2.28,1.78,3.48l.54,1.12c.11.24.23.49.34.74.21.46.42.93.62,1.4q.63,1.45,1.23,3c.2.51.4,1,.59,1.53a131.44,131.44,0,0,1,7.15,30.29s0,.09,0,.13c.2,1.62.38,3.23.53,4.82.06.65.12,1.3.17,2s.11,1.32.16,2,.09,1.33.13,2,.08,1.28.11,1.92c.07,1.23.12,2.46.16,3.71,0,.48,0,.95,0,1.41s0,1.21,0,1.8C609.61,130.27,609.62,131.43,609.62,132.6Z" style="fill:#fff"></path><path d="M291.75,132.6V262.29H169.58V132.6c0-18.1,2.37-44,13.63-64.76C193.83,48.31,210.24,38,230.66,38q2.88,0,5.67.27l1.22.14c.84.09,1.66.21,2.48.36.56.09,1.13.2,1.69.31s1.17.25,1.75.39c.77.17,1.53.37,2.28.59,13.64,3.93,24.5,13.27,32.37,27.8.61,1.12,1.21,2.28,1.78,3.48l.54,1.12c.11.24.22.49.34.74.21.46.42.93.62,1.4q.63,1.45,1.23,3l.59,1.53c.43,1.15.85,2.33,1.25,3.52a136.74,136.74,0,0,1,6,27.83c.15,1.28.29,2.58.41,3.89,0,.48.09,1,.13,1.44.06.67.12,1.34.16,2s.1,1.31.14,2c0,.51.07,1,.09,1.5.09,1.54.16,3.1.21,4.67,0,.48,0,.95,0,1.41s0,1.21,0,1.8C291.74,130.27,291.75,131.43,291.75,132.6Z" style="fill:#fff"></path><circle cx="213.03" cy="105.94" r="39.45" style="fill:#fff"></circle><circle cx="213.03" cy="105.94" r="39.45" style="fill:#ebebeb;opacity:0.5"></circle><path d="M192.69,123.58a3.51,3.51,0,0,1,1.12,2.53,3.84,3.84,0,0,1-1.11,2.79,3.45,3.45,0,0,1-2.89,1,4.12,4.12,0,0,1-2.48-1.19,13.2,13.2,0,0,0,2.45-.16,3.06,3.06,0,0,0,1.69-.85,4,4,0,0,0,1-1.71A7.22,7.22,0,0,0,192.69,123.58Z" style="fill:#dbdbdb"></path><path d="M187.8,127.41a2.27,2.27,0,0,1-1-1.74,2.71,2.71,0,0,1,.78-2.07,2.46,2.46,0,0,1,2.16-.7,2.55,2.55,0,0,1,1.69,1,11.83,11.83,0,0,0-1.66.33,2,2,0,0,0-1,.55,3,3,0,0,0-.67,1A6,6,0,0,0,187.8,127.41Z" style="fill:#dbdbdb"></path><path d="M240.88,86.45a3.53,3.53,0,0,1-.84,2.64,3.9,3.9,0,0,1-2.69,1.35,3.49,3.49,0,0,1-2.82-1.18,4.11,4.11,0,0,1-1.06-2.54,12.57,12.57,0,0,0,1.94,1.5,3,3,0,0,0,1.83.5,4,4,0,0,0,1.88-.62A7.26,7.26,0,0,0,240.88,86.45Z" style="fill:#dbdbdb"></path><path d="M234.68,86.07a2.28,2.28,0,0,1,.43-2,2.67,2.67,0,0,1,1.95-1,2.47,2.47,0,0,1,2.08.91,2.55,2.55,0,0,1,.58,1.89,12.6,12.6,0,0,0-1.46-.86,2.14,2.14,0,0,0-1.09-.23,3.3,3.3,0,0,0-1.15.31A6,6,0,0,0,234.68,86.07Z" style="fill:#dbdbdb"></path><path d="M230.88,103.62a7.85,7.85,0,0,1,4.49,5.57,8.7,8.7,0,1,0-15.21,4.22,7.94,7.94,0,0,1,10.72-9.79Z" style="fill:#dbdbdb"></path><path d="M238.85,109.2a11.33,11.33,0,0,1-1.93,6.52,13.24,13.24,0,0,1-5.26,4.58,9.56,9.56,0,0,1-7,.64,10.32,10.32,0,0,1-5.49-4,14,14,0,0,0,5.81,2.73,13.23,13.23,0,0,0,1.53.16,8.58,8.58,0,0,0,1.52-.12,9.71,9.71,0,0,0,2.9-.92c.46-.24.93-.49,1.38-.75s.88-.57,1.28-.91a13.37,13.37,0,0,0,2.27-2.18A15.92,15.92,0,0,0,238.85,109.2Z" style="fill:#dbdbdb"></path><path d="M194,84.54a2.92,2.92,0,0,1,2,1.72,3.24,3.24,0,1,0-5.26,2.63,2.89,2.89,0,0,1-.31-2.13A3,3,0,0,1,194,84.54Z" style="fill:#dbdbdb"></path><path d="M197.28,86a4,4,0,0,1-.17,2.56,4.82,4.82,0,0,1-1.61,2.1,3.55,3.55,0,0,1-2.59.73,3.68,3.68,0,0,1-2.3-1.17,5.36,5.36,0,0,0,2.33.5A3.55,3.55,0,0,0,195,90,5.89,5.89,0,0,0,197.28,86Z" style="fill:#dbdbdb"></path><path d="M206.64,130.26a4.16,4.16,0,0,1,3.28,1.9,4.61,4.61,0,1,0-6.73,5,4.2,4.2,0,0,1,3.45-6.87Z" style="fill:#dbdbdb"></path><path d="M211.64,131.5a6.1,6.1,0,0,1,.26,3.59,7.13,7.13,0,0,1-1.73,3.26,5.07,5.07,0,0,1-3.34,1.64,5.53,5.53,0,0,1-3.48-.93,7.35,7.35,0,0,0,3.4.27,5,5,0,0,0,2.79-1.57,7.84,7.84,0,0,0,1.72-2.85A8.24,8.24,0,0,0,211.64,131.5Z" style="fill:#dbdbdb"></path><path d="M260.71,85s.39,10.81-4.79,16.58c-.6.67-4.33-3.48-4.33-3.48v2.07a3.05,3.05,0,0,0-3.15,1.8l-2-1.66s1.8,5.32,1.31,6.43-12.95-.94-16.92-4.91c-.42-.41-2.56,7.46-8.91,11.33,0,0,6.28-1.38,9.67,2.83,0,0,6.91-5.8,12.57,1.59,0,0,5.53-6.91,13.82-1,0,0-2.07-8.09,7.6-11.47,0,0-2.83-8.57,5.39-12.78,0,0-1.32-7.39,4.28-12A37.73,37.73,0,0,1,260.71,85Z" style="fill:#263238"></path><path d="M276.28,144.74s-4.13,4.74-8.62,5.14c-.52.05-.46-3.2-.46-3.2l-.82.89a1.76,1.76,0,0,0-2.05-.49l-.18-1.49s-1.35,3-2,3.26-5.14-5.54-5.25-8.81c0-.34-4.05,2.16-8.29,1.28,0,0,3.22,1.91,3,5,0,0,5.24.28,4.71,5.67,0,0,5.1-.74,6.29,5.05,0,0,2.33-4.26,7.78-1.86,0,0,2.2-4.77,7.37-3.29,0,0,2.38-3.67,6.57-3.38A22.05,22.05,0,0,1,276.28,144.74Z" style="fill:#263238"></path><path d="M216,212.52s-1.28,6.16-5,8.7c-.43.29-2-2.57-2-2.57l-.29,1.18a1.76,1.76,0,0,0-2,.57l-.88-1.21s.28,3.26-.15,3.81-7.19-2.32-8.88-5.12c-.17-.29-2.48,3.86-6.61,5.16,0,0,3.75.1,5.07,3,0,0,4.71-2.32,6.89,2.64,0,0,4.08-3.13,7.94,1.34,0,0,0-4.86,5.89-5.42,0,0-.41-5.24,4.82-6.48,0,0,.29-4.35,4.08-6.15A21.88,21.88,0,0,1,216,212.52Z" style="fill:#263238"></path><path d="M202,181.31s-3.3,2.2-6.1,1.7c-.32-.06.25-2,.25-2l-.64.4a1.12,1.12,0,0,0-1.17-.64l.14-.93s-1.31,1.58-1.75,1.64-2.2-4.22-1.73-6.22c.05-.21-2.81.64-5.24-.6,0,0,1.64,1.69,1,3.56a3.11,3.11,0,0,1,1.93,4.23,3.58,3.58,0,0,1,3,4.11s2.12-2.2,5,.16a3.9,3.9,0,0,1,5-.77,4.92,4.92,0,0,1,4.55-1A13.7,13.7,0,0,1,202,181.31Z" style="fill:#263238"></path><path d="M586.8,97.78s-1.28,6.16-5,8.7c-.43.29-2-2.57-2-2.57l-.29,1.17a1.78,1.78,0,0,0-2,.58l-.87-1.21s.27,3.26-.16,3.81-7.18-2.32-8.88-5.12c-.17-.29-2.48,3.86-6.6,5.16,0,0,3.74.1,5.07,3,0,0,4.7-2.32,6.88,2.64,0,0,4.08-3.13,7.95,1.34,0,0,0-4.86,5.88-5.43,0,0-.41-5.23,4.82-6.47,0,0,.29-4.35,4.08-6.15A21.86,21.86,0,0,1,586.8,97.78Z" style="fill:#263238"></path><path d="M536.67,78s-3.3,2.2-6.1,1.7c-.32-.06.26-2,.26-2l-.65.4a1.12,1.12,0,0,0-1.17-.64l.14-.93s-1.31,1.58-1.75,1.64-2.2-4.22-1.72-6.22c.05-.21-2.82.64-5.25-.6,0,0,1.64,1.7,1,3.56a3.11,3.11,0,0,1,1.93,4.23,3.58,3.58,0,0,1,3,4.11s2.12-2.2,5,.17a3.9,3.9,0,0,1,5-.78,4.9,4.9,0,0,1,4.55-1A13.93,13.93,0,0,1,536.67,78Z" style="fill:#263238"></path><path d="M316.13,132.6V262.29H288V132.6c0-41-22.61-85.69-53.59-94.62C290.52,38,316.13,85.85,316.13,132.6Z" style="fill:#dbdbdb"></path><path d="M291.75,262.29H169.58V132.6c0-18.1,2.37-44,13.63-64.76C193.83,48.31,210.24,38,230.66,38s36.84,10.33,47.46,29.86c11.26,20.73,13.63,46.66,13.63,64.76ZM177,254.88H284.34V132.6c0-24.72-4.41-45.89-12.73-61.22-9.37-17.24-23.15-26-41-26s-31.56,8.75-40.93,26C181.4,86.71,177,107.88,177,132.6Z" style="fill:#c7c7c7"></path><path d="M291.75,262.29H169.58V132.6c0-18.1,2.37-44,13.63-64.76C193.83,48.31,210.24,38,230.66,38A54,54,0,0,1,245.75,40c15.65,4.51,27.64,16.13,35.65,34.54,6.77,15.58,10.35,35.64,10.35,58ZM177,254.88H284.34V132.6c0-46.17-15.2-78.11-40.65-85.44a46.47,46.47,0,0,0-13-1.77c-17.79,0-31.56,8.75-40.93,26C181.4,86.71,177,107.88,177,132.6Z" style="fill:#c7c7c7"></path><rect x="232.69" y="41.69" width="7.41" height="216.9" style="fill:#c7c7c7"></rect><rect x="173.29" y="128.9" width="114.76" height="7.41" style="fill:#c7c7c7"></rect><rect x="173.29" y="193.26" width="114.76" height="7.41" style="fill:#c7c7c7"></rect><path d="M634,132.6V262.29H605.92V132.6c0-41-22.62-85.69-53.6-94.62C608.4,38,634,85.85,634,132.6Z" style="fill:#dbdbdb"></path><path d="M609.62,262.29H487.46V132.6c0-18.1,2.36-44,13.63-64.76C511.7,48.31,528.11,38,548.54,38S585.38,48.31,596,67.84c11.27,20.73,13.63,46.66,13.63,64.76Zm-114.75-7.41H602.21V132.6c0-24.72-4.4-45.89-12.73-61.22-9.37-17.24-23.14-26-40.94-26s-31.57,8.75-40.94,26c-8.33,15.33-12.73,36.5-12.73,61.22Z" style="fill:#c7c7c7"></path><path d="M609.62,262.29H487.46V132.6c0-18.1,2.36-44,13.63-64.76C511.7,48.31,528.11,38,548.54,38A54,54,0,0,1,563.63,40c15.64,4.51,27.64,16.13,35.64,34.54,6.77,15.58,10.35,35.64,10.35,58Zm-114.75-7.41H602.21V132.6c0-46.17-15.19-78.11-40.64-85.44a46.52,46.52,0,0,0-13-1.77c-17.79,0-31.57,8.75-40.94,26-8.33,15.33-12.73,36.5-12.73,61.22Z" style="fill:#c7c7c7"></path><rect x="550.56" y="41.69" width="7.41" height="216.9" style="fill:#c7c7c7"></rect><rect x="491.16" y="128.9" width="114.76" height="7.41" style="fill:#c7c7c7"></rect><rect x="491.16" y="193.26" width="114.76" height="7.41" style="fill:#c7c7c7"></rect></g><g id="freepik--Lanterns--inject-2"><rect x="101.37" y="37.98" width="2.46" height="10.99" style="fill:#37474f"></rect><polygon points="119.68 74.81 112.06 110.93 93.01 110.93 85.4 74.81 119.68 74.81" style="fill:#FB4747"></polygon><polygon points="119.68 74.81 85.4 74.81 102.53 57.19 119.68 74.81" style="fill:#37474f"></polygon><polygon points="119.68 74.81 85.4 74.81 89.54 70.55 114.16 69.14 119.68 74.81" style="fill:#263238"></polygon><path d="M109.11,55.27c0,1.88-6.58,3.57-6.58,3.57S96,57.15,96,55.27s6.58-3.57,6.58-3.57S109.11,53.42,109.11,55.27Z" style="fill:#37474f"></path><path d="M109.11,112.85c0,1.88-6.58,3.58-6.58,3.58S96,114.73,96,112.85s6.58-3.57,6.58-3.57S109.11,111,109.11,112.85Z" style="fill:#37474f"></path><path d="M105.27,49.64c0,1.26-2.73,2.4-2.73,2.4s-2.73-1.14-2.73-2.4,2.73-2.4,2.73-2.4S105.27,48.39,105.27,49.64Z" style="fill:#37474f"></path><path d="M105.27,118.58c0,1.26-2.73,2.4-2.73,2.4s-2.73-1.14-2.73-2.4,2.73-2.4,2.73-2.4S105.27,117.33,105.27,118.58Z" style="fill:#37474f"></path><rect x="82.69" y="73.26" width="39.7" height="3.3" style="fill:#37474f"></rect><rect x="90.35" y="109.28" width="24.36" height="3.3" style="fill:#37474f"></rect><rect x="88.7" y="74.42" width="1" height="36.91" transform="translate(-17.22 20.38) rotate(-11.89)" style="fill:#37474f"></rect><rect x="97.43" y="92.37" width="36.91" height="1" transform="translate(1.13 187.13) rotate(-78.11)" style="fill:#37474f"></rect><rect x="96.74" y="74.77" width="1" height="36.2" transform="translate(-6.04 6.77) rotate(-3.87)" style="fill:#37474f"></rect><rect x="89.73" y="92.37" width="36.2" height="1" transform="translate(7.9 194.19) rotate(-86.14)" style="fill:#37474f"></rect><rect x="383.84" y="37.98" width="2.46" height="10.99" style="fill:#37474f"></rect><polygon points="402.15 74.81 394.53 110.93 375.47 110.93 367.87 74.81 402.15 74.81" style="fill:#FB4747"></polygon><polygon points="402.15 74.81 367.87 74.81 385 57.19 402.15 74.81" style="fill:#37474f"></polygon><polygon points="402.15 74.81 367.87 74.81 372.01 70.55 396.63 69.14 402.15 74.81" style="fill:#263238"></polygon><path d="M391.58,55.27c0,1.88-6.58,3.57-6.58,3.57s-6.58-1.69-6.58-3.57S385,51.7,385,51.7,391.58,53.42,391.58,55.27Z" style="fill:#37474f"></path><path d="M391.58,112.85c0,1.88-6.58,3.58-6.58,3.58s-6.58-1.7-6.58-3.58,6.58-3.57,6.58-3.57S391.58,111,391.58,112.85Z" style="fill:#37474f"></path><path d="M387.74,49.64c0,1.26-2.73,2.4-2.73,2.4s-2.73-1.14-2.73-2.4,2.73-2.4,2.73-2.4S387.74,48.39,387.74,49.64Z" style="fill:#37474f"></path><path d="M387.74,118.58c0,1.26-2.73,2.4-2.73,2.4s-2.73-1.14-2.73-2.4,2.73-2.4,2.73-2.4S387.74,117.33,387.74,118.58Z" style="fill:#37474f"></path><rect x="365.15" y="73.26" width="39.7" height="3.3" style="fill:#37474f"></rect><rect x="372.82" y="109.28" width="24.36" height="3.3" style="fill:#37474f"></rect><rect x="371.17" y="74.42" width="1" height="36.91" transform="translate(-11.16 78.59) rotate(-11.89)" style="fill:#37474f"></rect><rect x="379.89" y="92.37" width="36.91" height="1" transform="translate(225.4 463.54) rotate(-78.11)" style="fill:#37474f"></rect><rect x="379.21" y="74.77" width="1" height="36.2" transform="translate(-5.4 25.83) rotate(-3.87)" style="fill:#37474f"></rect><rect x="372.19" y="92.37" width="36.2" height="1" transform="translate(271.33 476.02) rotate(-86.14)" style="fill:#37474f"></rect><rect x="666.31" y="37.98" width="2.46" height="10.99" style="fill:#37474f"></rect><polygon points="684.62 74.81 676.99 110.93 657.94 110.93 650.33 74.81 684.62 74.81" style="fill:#FB4747"></polygon><polygon points="684.62 74.81 650.33 74.81 667.47 57.19 684.62 74.81" style="fill:#37474f"></polygon><polygon points="684.62 74.81 650.34 74.81 654.48 70.55 679.1 69.14 684.62 74.81" style="fill:#263238"></polygon><path d="M674.05,55.27c0,1.88-6.58,3.57-6.58,3.57s-6.58-1.69-6.58-3.57,6.58-3.57,6.58-3.57S674.05,53.42,674.05,55.27Z" style="fill:#37474f"></path><path d="M674.05,112.85c0,1.88-6.58,3.58-6.58,3.58s-6.58-1.7-6.58-3.58,6.58-3.57,6.58-3.57S674.05,111,674.05,112.85Z" style="fill:#37474f"></path><path d="M670.21,49.64c0,1.26-2.74,2.4-2.74,2.4s-2.73-1.14-2.73-2.4,2.73-2.4,2.73-2.4S670.21,48.39,670.21,49.64Z" style="fill:#37474f"></path><path d="M670.21,118.58c0,1.26-2.74,2.4-2.74,2.4s-2.73-1.14-2.73-2.4,2.73-2.4,2.73-2.4S670.21,117.33,670.21,118.58Z" style="fill:#37474f"></path><rect x="647.62" y="73.26" width="39.7" height="3.3" style="fill:#37474f"></rect><rect x="655.29" y="109.28" width="24.36" height="3.3" style="fill:#37474f"></rect><rect x="653.64" y="74.42" width="1" height="36.91" transform="translate(-5.1 136.8) rotate(-11.89)" style="fill:#37474f"></rect><rect x="662.36" y="92.37" width="36.91" height="1" transform="translate(449.68 739.95) rotate(-78.11)" style="fill:#37474f"></rect><rect x="661.68" y="74.77" width="1" height="36.2" transform="translate(-4.76 44.89) rotate(-3.87)" style="fill:#37474f"></rect><rect x="654.66" y="92.37" width="36.2" height="1" transform="translate(534.77 757.84) rotate(-86.14)" style="fill:#37474f"></rect></g><g id="freepik--Coffin--inject-2"><polygon points="650.75 420.86 678.55 420.86 709.44 161.44 673.55 166.01 650.75 420.86" style="fill:#37474f"></polygon><polygon points="673.55 166.01 651.95 108.29 601.77 106.17 577.84 160.07 593.37 420.86 650.75 420.86 673.55 166.01" style="fill:#263238"></polygon><polygon points="673.55 166.01 650.76 420.86 621.94 420.86 606.64 163.99 630.57 110.09 652.99 111.03 673.55 166.01" style="fill:#FB4747"></polygon><polygon points="673.55 166.01 650.76 420.86 621.94 420.86 606.64 163.99 630.57 110.09 652.99 111.03 673.55 166.01" style="opacity:0.30000000000000004"></polygon><polygon points="651.95 108.29 683.8 109.95 709.44 161.44 673.55 166.01 651.95 108.29" style="fill:#455a64"></polygon><polygon points="577.84 160.07 558.12 109.97 531.74 110.7 517.6 166.01 543.53 420.86 593.37 420.86 577.84 160.07" style="fill:#37474f"></polygon><polygon points="575.45 161.07 556.47 112.99 533.93 113.8 520.04 166.69 545.62 418.06 590.75 418.06 575.45 161.07" style="fill:#FB4747"></polygon><polygon points="575.45 161.07 556.47 112.99 533.93 113.8 520.04 166.69 545.62 418.06 590.75 418.06 575.45 161.07" style="opacity:0.30000000000000004"></polygon></g><g id="freepik--character-3--inject-2"><path d="M520.41,147.07s-5.79-14.33-20.89-19.72c0,0,26.52-37.47,69.83-7,0,0-18.11,14.85-18.86,26.9,0,0,8.74,7.7,15.69,14.75s39.87,43,44.76,49.31c9.77,12.63,16.92,101.39,19.8,113.19,6.47,26.49,43.74,40.53,44.17,42.38S638.77,383.6,634.63,386c-5.57,3.19-18.13,23.14-23.71,26-3.77,1.92-53.31,2.67-61.72,0s-53.52-8.4-62.68-28.1c0,0-26.15-87.18-26.15-97.54s-3-102.31,7-112.62C474.16,166.63,520.41,147.07,520.41,147.07Z" style="fill:#FB4747"></path><path d="M520.41,147.07s-5.79-14.33-20.89-19.72c0,0,26.52-37.47,69.83-7,0,0-18.11,14.85-18.86,26.9,0,0,8.74,7.7,15.69,14.75s39.87,43,44.76,49.31c9.77,12.63,16.92,101.39,19.8,113.19,6.47,26.49,43.74,40.53,44.17,42.38S638.77,383.6,634.63,386c-5.57,3.19-18.13,23.14-23.71,26-3.77,1.92-53.31,2.67-61.72,0s-53.52-8.4-62.68-28.1c0,0-26.15-87.18-26.15-97.54s-3-102.31,7-112.62C474.16,166.63,520.41,147.07,520.41,147.07Z" style="opacity:0.1"></path><path d="M521.31,147.06s-39.5,18.22-44.28,21.45-10.19,8.29-11.57,13.29-3.63,15.1-3.73,15.51c1.12-11.79,2.88-20.79,5.62-23.63,6.81-7.06,53.06-26.62,53.06-26.62s-5.78-14.3-20.86-19.69c.58.11,10,1.92,13.73,5.54S521.31,147.06,521.31,147.06Z" style="fill:#263238"></path><path d="M674.91,366.88c.22.94-9.17,5.27-19,9.6.22-.23,3.94-4,3.74-5.88s-34.31-27.83-35.6-38.4S611.87,215.81,611,212.9s-20.49-23.84-26.82-29.55-34.77-35.5-34.77-35.5.65-12.07,2.91-15.37,16-11.53,17-12.09c-1.07.89-18.08,15.18-18.81,26.86,0,0,8.74,7.7,15.7,14.75s39.86,43,44.75,49.31c9.76,12.63,16.92,101.39,19.8,113.19C637.22,351,674.49,365,674.91,366.88Z" style="fill:#263238"></path><g style="opacity:0.1"><path d="M634.63,386c-4.17,2.4-12.26,14.18-18.4,21.14-10.49-12.44-24.64-38.75-25.55-46.87-1.24-11-2.14-61.38,3.19-64.29s11.63,44.56,13,52S626.54,382.58,634.63,386Z"></path><path d="M593.87,413.42c-4.69.16-9.92.25-15.12.25-2.47-8.45-8-27.7-8.44-32.68-.56-6.43-2-35,.68-37.89s7.33,28.15,7.65,33.38C578.93,381,589.48,405.64,593.87,413.42Z"></path><path d="M529.55,407.44a153.06,153.06,0,0,1-20.88-6.54c-7.32-15.61-18.4-47.63-19.16-55.73-.83-8.87-4.43-33.14-1.82-36.37s6.41,26,9.18,34.3C502.08,358.66,522.67,395.36,529.55,407.44Z"></path></g><path d="M469.29,446.89c2.22.7,56.82.94,59.18-.64.91-.59,1.24-9.79,1.31-20.93V425c0-2.29,3.11-40.85,3.11-40.85l-41.24.84-2.59,40.5,0,.69s-15.4,9.66-17.82,11.67S467.07,446.21,469.29,446.89Z" style="fill:#ffc4c0"></path><path d="M466.59,448.11c2.32.76,61,.14,63.55-1.48,1-.6-.43-22.25-.43-22.37h-40.6l0,.72s-18.31,11.57-20.88,13.65S464.27,447.37,466.59,448.11Z" style="fill:#37474f"></path><path d="M466.77,445.54c11.15-.38,49.26-.85,60.32-.38.09,0,.09.07,0,.07-11.05.62-49.16.73-60.32.49C466.54,445.72,466.53,445.55,466.77,445.54Z" style="fill:#263238"></path><path d="M487.08,425.47c4.3-1.2,9.71-1,13.33,1.83.14.11,0,.31-.17.28A61.31,61.31,0,0,0,487.15,426,.28.28,0,0,1,487.08,425.47Z" style="fill:#263238"></path><path d="M484.09,427.65c4.3-1.2,9.71-1,13.33,1.83.14.11,0,.31-.17.27a61.94,61.94,0,0,0-13.09-1.55A.28.28,0,0,1,484.09,427.65Z" style="fill:#263238"></path><path d="M481.1,429.83c4.3-1.2,9.71-1,13.33,1.83.14.11,0,.3-.17.27a61.94,61.94,0,0,0-13.09-1.55A.28.28,0,0,1,481.1,429.83Z" style="fill:#263238"></path><path d="M555.71,203s-16.57,103.67-18.63,125.26c-2.31,24.15-4.63,96.93-4.63,96.93l-45.44.19s4.12-74.31,6.79-99c3.35-31,18.27-123.42,18.27-123.42Z" style="fill:#263238"></path><path d="M530.89,417.06c-6.94-.11-4.95-.18-11.89-.22-3.4,0-25.72-.11-28.89.43a.07.07,0,0,0,0,.14c3.17.51,25.5.22,28.89.17,7-.09,5-.14,11.89-.32A.1.1,0,0,0,530.89,417.06Z" style="fill:#37474f"></path><path d="M550.65,208.26c-2.64,13.18-5.14,26.37-7.6,39.58s-4.93,26.27-7.37,39.41-4.47,26.27-5.93,39.53c-1.43,13.05-2.31,26.17-2.84,39.3s-.69,26.47-.36,39.7c0,1.65.08,3.31.13,5a.16.16,0,0,0,.32,0c-.12-26.48.54-53,3.18-79.32,1.32-13.14,3.05-26.24,5.32-39.26s4.82-26.27,7.26-39.41c2.76-14.8,5.49-29.6,8-44.44C550.83,208.2,550.67,208.15,550.65,208.26Z" style="fill:#37474f"></path><path d="M632.74,447.22c-2.2.71-67.2-.1-69.57-1.65-.37-.23.16-10.32.91-22.28L557,383.84l39.82.42,7.53,40.91s23.89,11.06,26.32,13S635,446.52,632.74,447.22Z" style="fill:#ffc4c0"></path><path d="M633.46,448.11c-2.32.76-68,.14-70.46-1.48-1-.6.43-22.25.42-22.37H604l0,.72s25.23,11.57,27.8,13.65S635.78,447.37,633.46,448.11Z" style="fill:#37474f"></path><path d="M633.28,445.54c-11.15-.38-56.18-.85-67.23-.38-.09,0-.09.07,0,.07,11,.62,56.07.73,67.23.49C633.51,445.72,633.52,445.55,633.28,445.54Z" style="fill:#263238"></path><path d="M608.78,424.42c-4.38-.86-9.76-.23-13.14,2.86-.13.12,0,.31.18.27A61.3,61.3,0,0,1,608.76,425,.28.28,0,0,0,608.78,424.42Z" style="fill:#263238"></path><path d="M611.93,426.36c-4.38-.86-9.76-.23-13.14,2.86-.13.12,0,.31.18.26a61.92,61.92,0,0,1,12.94-2.56A.28.28,0,0,0,611.93,426.36Z" style="fill:#263238"></path><path d="M615.08,428.3c-4.38-.86-9.76-.23-13.14,2.86-.13.12,0,.31.18.26a61.92,61.92,0,0,1,12.94-2.56A.28.28,0,0,0,615.08,428.3Z" style="fill:#263238"></path><path d="M606.91,424.87H561.69S546.92,319,546.56,317.16C546.11,314.79,527.15,203,527.15,203h38.33S587.19,306.69,588.4,316.7C590.36,332.88,606.91,424.87,606.91,424.87Z" style="fill:#263238"></path><path d="M604.91,417.15c-6.91-.14-4.92-.2-11.83-.26-3.38,0-25.59-.23-28.75.29-.07,0-.07.13,0,.14,3.16.53,25.37.33,28.75.3,6.91-.06,4.92-.12,11.83-.26A.11.11,0,0,0,604.91,417.15Z" style="fill:#37474f"></path><path d="M527.22,235.34a81.35,81.35,0,0,1,12.94,6,.15.15,0,0,1-.12.27c-4.36-1.88-8.8-3.67-13-5.78A.28.28,0,0,1,527.22,235.34Z" style="fill:#37474f"></path><path d="M525.83,205.42c0-.15.28-.18.28,0a143,143,0,0,0,.73,14.57c.2,2.25,2,14.66,5.91,13.75.65-.15,1-.79,1.08-1.77a15.46,15.46,0,0,0-.51-3.81q-.66-3.9-1-7.83a72,72,0,0,1,.16-14.68.13.13,0,0,1,.25,0,134.69,134.69,0,0,0,1.19,20.27c.49,3.23,2.11,8.09-1.26,8.59s-5.67-7.64-6.09-9.87A74.44,74.44,0,0,1,525.83,205.42Z" style="fill:#37474f"></path><path d="M532.64,234.06a21,21,0,0,1,.88,2.57,5.93,5.93,0,0,1,.36,2.11c0,.14-.2.15-.27.06a7.45,7.45,0,0,1-.9-2.06c-.3-.79-.61-1.58-.89-2.39A.44.44,0,0,1,532.64,234.06Z" style="fill:#37474f"></path><path d="M541.85,286c-.21-1.64-.49-3.28-.75-4.92-.53-3.37-1.11-6.74-1.71-10.11-1.19-6.71-2.32-13.43-3.6-20.13-.73-3.78-1.73-8.89-2.62-12.65a.08.08,0,0,0-.15,0c.76,6.76,2.19,14.81,3.31,21.52s2.23,13.46,3.44,20.17c.34,1.88.65,3.77,1.07,5.63a57.58,57.58,0,0,0,1.37,5.66.09.09,0,0,0,.17,0C542.34,289.42,542.06,287.67,541.85,286Z" style="fill:#37474f"></path><path d="M561.24,380.19q-2.18-16.28-4.73-32.49t-5.44-32.18q-3-16.23-6.3-32.38t-7.21-32c-.32-1.32-.65-2.63-1-3.95,0,0-.05,0,0,0q3.41,16,6.64,32c2.14,10.74,4.25,21.48,6.21,32.25s3.81,21.45,5.56,32.2,3.39,21.66,4.92,32.51,3,21.71,4.33,32.57c.17,1.35.35,2.69.52,4,0,.2.35.2.33,0C564,401.9,562.69,391,561.24,380.19Z" style="fill:#37474f"></path><path d="M532.35,156.08c-5.14,5-47.18,38.79-51.06,37.43-11.42-4-21.31-8.43-15.7-16.33,6.52-9.2,44.9-24.46,63.17-30C541.85,143.29,537.42,151.14,532.35,156.08Z" style="fill:#ffc4c0"></path><path d="M532.35,156.08c-5.14,5-47.18,38.79-51.06,37.43-11.42-4-21.31-8.43-15.7-16.33,6.52-9.2,44.9-24.46,63.17-30C541.85,143.29,537.42,151.14,532.35,156.08Z" style="fill:#37474f"></path><path d="M532.34,156.08c-2.77,2.7-16.28,13.78-28.75,23.2L532,146.42C541,144.72,537,151.6,532.34,156.08Z" style="fill:#263238"></path><path d="M570.29,221c-.16.18-59.93-2.31-60.55-3-.86-1,11-64.22,17.85-73.3,1.47-1.95,10.87-4.7,16.21-.2C561.11,159,570.84,220.32,570.29,221Z" style="fill:#fff"></path><path d="M509.74,218a88,88,0,0,0,11.57,2.72c.65.06,4.23-14.51,4.23-14.51.73-.06,3.3,15.23,3.92,15.26,12.17.7,40.73-.35,40.83-.46.55-.63-9.18-61.93-26.49-76.5-3.19,6.66-10.19,20.65-15.59,25.22a104.31,104.31,0,0,1-2.81-20.82C518.46,165.71,509,217.08,509.74,218Z" style="fill:#37474f"></path><path d="M527.07,187.56c.13-2.52.25-5,.38-7.56.06-1.24.13-2.48.2-3.72s.09-2.64.14-4a0,0,0,0,0-.07,0c-.19,1.31-.4,2.61-.54,3.93s-.26,2.47-.38,3.7q-.37,3.82-.6,7.66a150.72,150.72,0,0,0-.25,15.18c0,.1.17.09.18,0C526.57,197.7,526.8,192.63,527.07,187.56Z" style="fill:#263238"></path><path d="M531.22,198a1.34,1.34,0,1,1-1.15-1.51A1.34,1.34,0,0,1,531.22,198Z" style="fill:#263238"></path><path d="M531.78,188.47a1.34,1.34,0,1,1-1.15-1.5A1.34,1.34,0,0,1,531.78,188.47Z" style="fill:#263238"></path><path d="M532.33,179a1.33,1.33,0,1,1-1.14-1.5A1.34,1.34,0,0,1,532.33,179Z" style="fill:#263238"></path><path d="M518.51,169.94a4,4,0,0,1-1.31,4.36,6,6,0,0,1,2.14,3.4c.41,2.41-3.18,4.1-3.18,4.1a7.28,7.28,0,0,1,1.69,3.95c.16,2.34-3.22,4.56-3.22,4.56a6.36,6.36,0,0,1-.7,4.41c-2.16,3.5-8.43,3.52-12.42,3.58s-15.35-3.51-17.59-4l-.59-25.59s17.81-5.35,22.51-4.75C509.79,164.49,517.43,167,518.51,169.94Z" style="fill:#ffc4c0"></path><path d="M517,173.89c-4.08-1.54-8.39-1.79-12.69-2.29a.08.08,0,0,0,0,.15c4.27.44,8.4,1.73,12.65,2.35A.11.11,0,0,0,517,173.89Z" style="fill:#263238"></path><path d="M516.07,181.47a11.22,11.22,0,0,0-3-.4c-1-.07-2.1-.12-3.15-.16q-3.17-.1-6.33,0c-.1,0-.12.15,0,.15,2.1.08,4.2.18,6.3.34l3.15.27a13.42,13.42,0,0,0,3,.13A.15.15,0,0,0,516.07,181.47Z" style="fill:#263238"></path><path d="M514.55,190.31a8,8,0,0,0-2.68-.22L509,190c-1.92,0-3.84-.09-5.76-.2a.08.08,0,0,0,0,.15c2,.12,3.9.27,5.85.38l2.87.14a7.43,7.43,0,0,0,2.62-.11A0,0,0,0,0,514.55,190.31Z" style="fill:#263238"></path><path d="M485.42,168.13c-5,1-21.26,6.38-21.4,13.13s8.92,10.53,22.5,13.74Z" style="fill:#ffc4c0"></path><path d="M485.46,168.14c-5,1-21.27,6.38-21.41,13.13S473,191.8,486.55,195Z" style="fill:#fff"></path><path d="M484.35,168.38s-1.62,27.93-1.77,27.84-20.41-6.31-18.48-15.88C465.52,173.28,484.35,168.38,484.35,168.38Z" style="fill:#37474f"></path><path d="M472.58,186s0-.09,0-.13,0-.36-.05-.54a2.08,2.08,0,0,0-.5-.92,1.5,1.5,0,0,0-.64-.44,1.55,1.55,0,0,0-.77-.2,1.53,1.53,0,0,0-.79.15,1.64,1.64,0,0,0-.67.4,2.09,2.09,0,0,0-.55.88v0l-.09.53h0v0c0,.09,0,.18,0,.27l0,.27v0h0c.07.16.13.32.19.48,0,0,0,0,0,0s.14.19.16.22a1.58,1.58,0,0,0,.55.54l.47.22a2,2,0,0,0,1.08,0,1.92,1.92,0,0,0,.49-.19,2,2,0,0,0,.71-.66c0-.08.07-.17.11-.25h0l0-.09,0-.09h0a1.21,1.21,0,0,0,.12-.59Z" style="fill:#263238"></path><path d="M479.76,190s0-.09,0-.13,0-.36,0-.54a2.08,2.08,0,0,0-.5-.92,1.5,1.5,0,0,0-.64-.44,1.55,1.55,0,0,0-.77-.2,1.53,1.53,0,0,0-.79.15,1.64,1.64,0,0,0-.67.4,2.09,2.09,0,0,0-.55.88v0l-.09.53h0v0l0,.28a2.45,2.45,0,0,0,0,.27v0h0c.07.17.13.33.19.49s0,0,0,0,.14.19.16.22a1.58,1.58,0,0,0,.55.54l.47.22a2,2,0,0,0,1.57-.16,2,2,0,0,0,.71-.66,1.36,1.36,0,0,0,.11-.25v0l0-.08,0-.09v0a1.15,1.15,0,0,0,.11-.58Z" style="fill:#263238"></path><path d="M468,175.45a26.42,26.42,0,0,1,4.7-3,53.8,53.8,0,0,1,5.1-2.26c1.73-.68,3.51-1.24,5.29-1.76.89-.27,1.79-.5,2.69-.74l2.69-.69,5.39-1.34c1.8-.44,3.59-.91,5.41-1.28.91-.19,1.82-.37,2.75-.51a10.55,10.55,0,0,1,2.81-.12,43.47,43.47,0,0,1,5.43,1.21,50.92,50.92,0,0,0-5.46-.9,10.85,10.85,0,0,0-2.72.2c-.91.16-1.81.37-2.7.59-3.59.88-7.17,1.83-10.76,2.75l-2.7.67c-.89.23-1.79.45-2.68.7-1.77.5-3.53,1.07-5.27,1.67s-3.46,1.3-5.13,2.08A29.76,29.76,0,0,0,468,175.45Z" style="fill:#263238"></path><path d="M467.37,173.68c10.38-6.76,28.9-8.73,34.66-9.78s18.09,4.06,20.18,5.95-6.37,76.46-9.67,94.18c-3.66,19.63-28.64,41.42-26,119.81,0,0-22-69.33-27.72-96.3C454.18,265.79,456.34,180.84,467.37,173.68Z" style="fill:#263238"></path><path d="M518.27,221c-.26,3.59-.6,7.16-.93,10.74l-1.12,10.73c-.38,3.57-.85,7.13-1.32,10.7s-1,7.12-1.7,10.67a23.73,23.73,0,0,1-.7,2.66c-.29.85-.59,1.71-.92,2.55-.65,1.68-1.34,3.35-2,5q-2.1,5-4.31,9.88l-4.43,9.83c-1.48,3.27-3,6.53-4.26,9.89,2.28-6.82,5.26-13.38,8-20l4.17-9.93c.68-1.66,1.35-3.32,2-5a28.29,28.29,0,0,0,1.55-5.08c1.38-7,2.24-14.16,3.21-21.27Z" style="fill:#37474f"></path><path d="M543.78,159.89c12.06,25,29.66,53.09,34.62,59.43,3.36,4.31,26.51-13,23.79-15.54-3.49-3.3-33.92-38.05-50.4-52.95C542.7,142.62,538.88,149.74,543.78,159.89Z" style="fill:#ffc4c0"></path><path d="M597.8,245.52a4.28,4.28,0,0,0,3.06-3.8,6.34,6.34,0,0,0,4.31-.15c2.37-1.09,1.71-5.29,1.71-5.29a7.76,7.76,0,0,0,4.51-.89c2.17-1.27,2.1-5.6,2.1-5.6a6.83,6.83,0,0,0,3.47-3.28c1.79-4-2-9.59-4.33-13.16s-12.38-11.46-14.13-13.16l-23,14.93s6,19,9.39,22.78C587.71,241.1,594.57,246.33,597.8,245.52Z" style="fill:#ffc4c0"></path><path d="M600.39,241.8c-3.83-2.67-6.66-6.34-9.69-9.83-.07-.08,0-.19.12-.11,3,3.52,6.61,6.39,9.72,9.78C600.63,241.73,600.5,241.88,600.39,241.8Z" style="fill:#263238"></path><path d="M606.53,236.4a12.09,12.09,0,0,1-2.14-2.37q-1-1.32-2-2.7c-1.33-1.82-2.63-3.68-3.86-5.57-.06-.08.06-.19.12-.1,1.33,1.82,2.69,3.61,4.1,5.37.7.88,1.42,1.75,2.14,2.62a14.75,14.75,0,0,1,1.91,2.55C606.83,236.34,606.65,236.5,606.53,236.4Z" style="fill:#263238"></path><path d="M613.43,229.71a8.52,8.52,0,0,1-1.81-2.23L609.84,225c-1.2-1.68-2.41-3.35-3.66-5-.07-.08.06-.19.12-.1,1.29,1.65,2.59,3.28,3.87,4.94l1.86,2.46a8,8,0,0,1,1.48,2.38S613.47,229.74,613.43,229.71Z" style="fill:#263238"></path><path d="M575.49,219.48l25.08-18.85s-42.07-44.7-49-50.3-12.66-4-9.06,7.67S575.49,219.48,575.49,219.48Z" style="fill:#fff"></path><path d="M571.6,214.87l26-18.28s-38.72-41.71-47.39-47.31-10,.45-8.55,6.86C543.86,165.82,571.6,214.87,571.6,214.87Z" style="fill:#37474f"></path><path d="M586.19,190a.6.6,0,0,0,.06-.11c0-.18.1-.35.14-.53a2.14,2.14,0,0,0-.14-1,1.59,1.59,0,0,0-.45-.63,1.49,1.49,0,0,0-.66-.46,1.53,1.53,0,0,0-.79-.14,1.46,1.46,0,0,0-.76.15,1.87,1.87,0,0,0-.82.63h0l-.27.47h0s0,0,0,0-.05.18-.07.27a2.68,2.68,0,0,0-.07.27h0v0h0v.55c0,.09.07.23.08.26a1.45,1.45,0,0,0,.32.7l.37.37a1.91,1.91,0,0,0,1,.4,1.88,1.88,0,0,0,.53,0,2,2,0,0,0,.89-.37,1.14,1.14,0,0,0,.19-.19h0l.06-.07s.05,0,.07-.07h0a1.23,1.23,0,0,0,.31-.5Z" style="fill:#263238"></path><path d="M591.54,196.17l.07-.12c0-.17.09-.35.13-.52a1.91,1.91,0,0,0-.14-1,1.5,1.5,0,0,0-.44-.64,1.61,1.61,0,0,0-.66-.46,1.55,1.55,0,0,0-.79-.13,1.58,1.58,0,0,0-.77.14,2,2,0,0,0-.82.63v0l-.27.47h0a0,0,0,0,1,0,0,2.5,2.5,0,0,1-.07.26,2.68,2.68,0,0,1-.07.27v0h0c0,.18,0,.35,0,.52v0a2.3,2.3,0,0,0,.07.26,1.57,1.57,0,0,0,.32.69l.37.37a2,2,0,0,0,1,.41,1.81,1.81,0,0,0,.52,0,1.9,1.9,0,0,0,.89-.37c.07-.06.13-.13.19-.19l0,0,.07-.07a.46.46,0,0,0,.07-.07h0a1.07,1.07,0,0,0,.31-.5Z" style="fill:#263238"></path><path d="M568.64,209.61C563.36,199.32,558,189.06,552.25,179c-.8-1.4-1.66-2.77-2.49-4.16s-1.64-2.87-2.51-4.28a.05.05,0,1,0-.09,0c1.66,3.44,3.41,6.84,5.19,10.21-.42-.51-.85-1-1.27-1.55-.78-1-1.53-2-2.28-3-.06-.08-.2,0-.14.09a20.46,20.46,0,0,0,2.06,3.22,17.82,17.82,0,0,0,2.27,2.48q1.08,2,2.18,4.06c2.72,5.07,5.54,10.1,8.4,15.1,1.62,2.84,3.3,5.64,4.94,8.47C568.56,209.78,568.69,209.7,568.64,209.61Z" style="fill:#263238"></path><path d="M529.25,152.61c3.28,1.67,9.48-2.93,11.85-7.23.16-.3-.23-12-.23-14.36,0-.48-14.83,3.56-14.83,3.56a37.67,37.67,0,0,1,1.4,9.08,5.06,5.06,0,0,1-.1,1,.63.63,0,0,0,0,.16C527,146.63,527.57,151.76,529.25,152.61Z" style="fill:#ffc4c0"></path><path d="M527.32,144.79a9.13,9.13,0,0,0,1.52.08c7.78-.14,10.6-9.65,11.47-13.84-2.72.41-14.27,3.54-14.27,3.54a37.69,37.69,0,0,1,1.4,9.09,4.79,4.79,0,0,1-.1,1S527.32,144.72,527.32,144.79Z" style="fill:#263238"></path><path d="M543.18,113.93c1.51,5.28-1.54,20.41-5.34,23.73-5.51,4.81-14.39,5.11-18.44-1.48-3.93-6.39.4-26,4.64-29C530.27,102.73,541,106.12,543.18,113.93Z" style="fill:#ffc4c0"></path><path d="M529.39,122.59s.07.07.07.11c-.24,1-.33,2.21.52,2.73,0,0,0,.07,0,.06C528.87,125.11,529,123.52,529.39,122.59Z" style="fill:#263238"></path><path d="M530.52,121.71c1.66.2,1.14,3.51-.4,3.33S529.12,121.54,530.52,121.71Z" style="fill:#263238"></path><path d="M523.74,121.6s-.09,0-.09.08c-.13,1-.45,2.19-1.43,2.39,0,0,0,.06,0,.06C523.37,124.15,523.78,122.6,523.74,121.6Z" style="fill:#263238"></path><path d="M523,120.39c-1.63-.39-2.28,2.9-.77,3.26S524.36,120.71,523,120.39Z" style="fill:#263238"></path><path d="M531.93,120.12a12.53,12.53,0,0,1-1.37,0,2.24,2.24,0,0,1-1.42-.23.72.72,0,0,1-.19-.85,1.78,1.78,0,0,1,1.59-.8,2.66,2.66,0,0,1,1.79.52A.76.76,0,0,1,531.93,120.12Z" style="fill:#263238"></path><path d="M521.4,118.3c.42.21.84.33,1.28.5a2.23,2.23,0,0,0,1.4.27.72.72,0,0,0,.48-.73,1.76,1.76,0,0,0-1.22-1.3,2.55,2.55,0,0,0-1.86-.12A.75.75,0,0,0,521.4,118.3Z" style="fill:#263238"></path><path d="M528.93,132.06a1.62,1.62,0,0,1-1,.47,3,3,0,0,1-1.06-.43s-.07,0,0,0a1.38,1.38,0,0,0,1.21.76,1.09,1.09,0,0,0,.95-.78C529.05,132.06,529,132,528.93,132.06Z" style="fill:#263238"></path><path d="M525,129.67a4.19,4.19,0,0,0,1.53,1.48,1.88,1.88,0,0,0,1.13.2c.85-.13,1-.88.88-1.55a5,5,0,0,0-.26-1A5.48,5.48,0,0,1,525,129.67Z" style="fill:#263238"></path><path d="M526.55,131.15a1.88,1.88,0,0,0,1.13.2c.85-.13,1-.88.88-1.55A2,2,0,0,0,526.55,131.15Z" style="fill:#ff9abb"></path><path d="M524.45,129.8a2.23,2.23,0,0,0,.93,1.18,2,2,0,0,1-.07-1.24Z" style="fill:#fff"></path><path d="M527.82,129.15a2,2,0,0,1-.28,1.58s-.15-1-.48-1.31Z" style="fill:#fff"></path><path d="M528.33,128.82a3.55,3.55,0,0,1-2.57,1.19,5,5,0,0,1-1.27-.14l-.24-.07-.22-.07a.27.27,0,0,1-.17-.26h0a.3.3,0,0,1,0-.1h0l0-.09c.1-.79.37-2,.37-2-.32.1-1.89.53-1.8.12a53.23,53.23,0,0,1,3-10.37.09.09,0,0,1,.18,0c-.58,3.29-1.73,6.45-2.37,9.74a6.13,6.13,0,0,1,1.73-.25c.1.05-.56,2.3-.57,2.66,0,0,0,0,0,0a4.88,4.88,0,0,0,3.79-.55C528.34,128.66,528.41,128.74,528.33,128.82Z" style="fill:#263238"></path><path d="M542.41,126.91c-3.17-.49-3.9-4.49-4.14-7.35s-.77-7.23-4.68-8.44-7.27,3.32-7.27,3.32-.51-4.76-2.52-4.52c-1.55.18-2.86,2.23-3.39,3.67v0s.48-8.12,4-9.63c7.09-3,13.1,1.81,17.3,6,0,0,3,1.49,3.57,3.33C546.1,116,543.53,121.94,542.41,126.91Z" style="fill:#263238"></path><path d="M539.71,126.24s3.62-4.77,5.8-3.46-.67,8.32-3.33,9.19a2.65,2.65,0,0,1-3.5-1.57Z" style="fill:#ffc4c0"></path><path d="M544.64,124.77s.05,0,0,.07c-1.86.67-2.89,2.33-3.63,4.07a1.47,1.47,0,0,1,2.21-.32s0,.11-.05.1a1.65,1.65,0,0,0-1.83.5,7.8,7.8,0,0,0-.91,1.42c-.1.16-.39.06-.32-.13l0,0C540.18,128.1,542.12,124.91,544.64,124.77Z" style="fill:#263238"></path><path d="M527.28,144.74l3.64,8.36,10.23-11,3.08,3.35s-9.83,17.27-9.92,16.51l-3.69-7.2-4.9,5.21.06-12.74Z" style="fill:#fff"></path><path d="M525.39,153.69c.08-2.1.1-4.22.28-6.32,0-.07.12-.11.14,0,.48,2,.13,10.05.19,12l0,0c.21-.23,4.55-4.59,4.6-4.53.79,1.14,3.49,6.38,3.68,6.85,1.56-2.74,8.18-13.57,10-16.17a.07.07,0,0,1,.13.07c-1.36,2.89-9.91,17.17-10,17.14a81.58,81.58,0,0,1-3.86-7.61c-.73.95-5.1,5.86-5.13,5.54A66.35,66.35,0,0,1,525.39,153.69Z" style="fill:#263238"></path><path d="M531.73,155.38s6.55-4.53,8.66-3-2.45,5.25-2.21,6,.88,3.54-.89,3.92-6.12-4.09-6.12-4.09Z" style="fill:#FB4747"></path><path d="M531.72,155.39l-.55,2.78s.32.34.82.8a5.32,5.32,0,0,0,2.21-1.73c.43-.83-.31-2-1-2.77C532.3,155,531.72,155.39,531.72,155.39Z" style="opacity:0.2"></path><path d="M529,154.82s-3.19-6.48-5.24-5.79,0,5.73-.46,6.31-1.87,3-.72,4,5.86-1.69,5.86-1.69Z" style="fill:#FB4747"></path><path d="M529,154.83l-.56,2.78s-.35.2-.87.46a5.21,5.21,0,0,1-1-2.37c0-.92.9-1.71,1.71-2.23C528.67,154.26,529,154.83,529,154.83Z" style="opacity:0.2"></path><path d="M527.75,157.72c.33.49,2,.4,2,.4s1.5.73,2,.4.92-3,.68-3.37-1.67-.33-2-.4-1.63-.68-2-.4S527.42,157.25,527.75,157.72Z" style="fill:#FB4747"></path></g><g id="freepik--character-2--inject-2"><path d="M330,186.46l7.5.46a23,23,0,0,0,2.9-13.69c-.08-1.09,2.25,5.23.9,13.93,7.92.48,18.69,1.14,28.1,1.62.32-3.67.78-7.06.78-7.06a40.56,40.56,0,0,0,1.26,7.17c1.29.08,2.55.13,3.76.19a144.22,144.22,0,0,1,1.28-15.63,50.38,50.38,0,0,0,4.07,15.87c6,.25,9.92.3,9.68,0-8.66-10.71-1.82-16.44-4.05-25.66-2.68-11.06-12.05-13.15-11.46-21.36.46-6.68,1.74-18.78-6.61-21.69a16.28,16.28,0,0,0-17.53-4c-13.54,4.62-9,25.44-10.09,29.6-1.52,5.94-4.45,7.95-6.84,14.7s.55,11.54.73,16.25S328.45,186.39,330,186.46Z" style="fill:#263238"></path><path d="M390.5,187.85a23.25,23.25,0,0,1-2.69-6,12.33,12.33,0,0,1,.26-6.28,66.75,66.75,0,0,0,1.35-6.56,17.39,17.39,0,0,0-.41-6.91,15.25,15.25,0,0,0-3.37-6.07,41.62,41.62,0,0,0-5-4.55,25.09,25.09,0,0,1-4.58-4.57,12.11,12.11,0,0,1-2.18-6.07,11.26,11.26,0,0,0,1.5,6.5,22.62,22.62,0,0,0,4.4,5.13,50,50,0,0,1,4.6,4.61,14.55,14.55,0,0,1,2.93,5.49,17.19,17.19,0,0,1,.39,6.25c-.2,2.13-.68,4.27-1.05,6.48a21,21,0,0,0-.34,3.4,9.64,9.64,0,0,0,.62,3.42A18.76,18.76,0,0,0,390.5,187.85Z" style="fill:#263238"></path><path d="M342.69,124a33.73,33.73,0,0,0-2.11,7.91c-.44,2.7-.75,5.42-1,8.12l-.44,4a20.82,20.82,0,0,1-.75,3.85,21.66,21.66,0,0,1-3.91,6.77,30.57,30.57,0,0,0-2.31,3.49,18.63,18.63,0,0,0-1.64,3.94,28.45,28.45,0,0,0-.74,4.15,17.62,17.62,0,0,0,.08,4.23c.19,1.4.53,2.74.81,4a20.31,20.31,0,0,1,.48,4,8.37,8.37,0,0,1-3.54,6.78,8.5,8.5,0,0,0,4.39-6.76,20,20,0,0,0-.2-4.17c-.18-1.37-.48-2.69-.58-4a21.73,21.73,0,0,1,.91-7.76,19,19,0,0,1,1.54-3.56,27.51,27.51,0,0,1,2.23-3.28c.8-1.09,1.63-2.21,2.36-3.43a16.74,16.74,0,0,0,1.72-3.92,21.76,21.76,0,0,0,.7-4.17c.12-1.37.2-2.73.27-4.09.16-2.71.28-5.42.51-8.12A39.62,39.62,0,0,1,342.69,124Z" style="fill:#263238"></path><path d="M358.09,154.75c-1.29.55-3.74.05-9.74,8.55-7,9.85-32.56,110.69-45.18,218-.48,4,3.21,2.86,4.4,2.74s2.74-3.45,3.69-4.41,32.07-10.05,51.7-12.37,68.89,12.49,71.21,13.74,5,2.5,7.14,2.14,5.41-14.69,7.56-38S429.41,294.13,419,259s-32.64-102.14-49-105.22Z" style="fill:#37474f"></path><path d="M434.18,381c-2.33-1.25-51.59-16.07-71.22-13.74s-50.75,11.43-51.7,12.37c0,0,5.59-53.93,14.2-112,8.37-56.42,20.86-107.53,31.7-112.57h0a3.67,3.67,0,0,1,.91-.32l11.2-.89A43.12,43.12,0,0,1,380,167.08c4.55,8.57,32.89,95.4,39,110.75s18.59,48.9,18.68,55.69S435.78,374.39,434.18,381Z" style="fill:#FB4747"></path><path d="M434.18,381c-2.33-1.25-51.59-16.07-71.22-13.74s-50.75,11.43-51.7,12.37c0,0,5.59-53.93,14.2-112,8.37-56.42,20.86-107.53,31.7-112.57h0a3.67,3.67,0,0,1,.91-.32l11.2-.89A43.12,43.12,0,0,1,380,167.08c4.55,8.57,32.89,95.4,39,110.75s18.59,48.9,18.68,55.69S435.78,374.39,434.18,381Z" style="opacity:0.1"></path><g style="opacity:0.1"><path d="M336.93,372.25c-5.87,1.41-11.4,2.88-15.81,4.14,2.48-18.72,8-78.82,14-80.41C340.29,294.62,338.93,348.09,336.93,372.25Z"></path><path d="M351,369.18c-2.27.43-4.58.92-6.88,1.43.63-11.39,3.29-48.77,5.69-50.8S352.13,356,351,369.18Z"></path><path d="M413,374.74c-4.56-1.17-9.54-2.38-14.6-3.48-1-9.57-4.11-39.3-5.33-46.76-1.44-8.91-6.59-38.71-2.56-38.85s15.39,33.18,18,46.12C410.38,341.37,412.19,363.79,413,374.74Z"></path><path d="M430.51,379.71C428.23,379,425,378,421.22,377c-.16-11.23-.58-36.93-1.34-42.71-1-7.44-5.61-26.75-3.34-27.72s9.06,21.14,9.92,25.78C427.18,336.17,429.68,368.83,430.51,379.71Z"></path></g><path d="M344.34,208.13s-18.61,98.7-19.84,107.76-2.18,29,1.86,47.27c0,0,18,20.68,49.78,20.68,30.26,0,46.65-24.89,46.65-24.89A245.85,245.85,0,0,1,411.23,319C404.85,287.91,400,247.62,400,247.57s8.47-13.86-5.93-39.44Z" style="fill:#455a64"></path><path d="M302,447.18c2.15.7,63.6-.1,65.92-1.61.89-.57,1.29-9.53,1.47-20.37,0-.11-.57-40-.57-40l-39.74.41.67,39.37,0,.67S306.34,436.43,304,438.37,299.79,446.5,302,447.18Z" style="fill:#ffc4c0"></path><path d="M320.41,429.81c.16-.05.25-.09.25-.14Z" style="fill:#FB4747"></path><path d="M302,447.18c2.15.7,63.6-.09,65.92-1.62.79-.49,1.2-7.63,1.41-16.82-11.26,2.35-54.89,11.18-56.09,7.44-.47-1.46,3.26-4,5.62-5.43-6.44,3.07-13.59,6.59-14.85,7.62C301.61,440.3,299.79,446.49,302,447.18Z" style="fill:#263238"></path><path d="M381.88,208.17S369.66,312,368.16,319.92c-.35,1.8,1.12,101.39,1.12,101.39l-39.71.26s-2-86-.07-101.83,14.88-111.57,14.88-111.57Z" style="fill:#ffc4c0"></path><path d="M381.88,208.17S369.66,312,368.16,319.92c0,.21-.06,1.86-.06,4.58C360.63,295,348.57,247.14,342.51,222l1.87-13.8Z" style="fill:#263238"></path><path d="M439.57,449.84c-2.15.7-55.81-.09-58.13-1.61-.89-.56-1.3-9.52-1.48-20.36v-.34c0-2.23-3.82-39.7-3.82-39.7l38.87.4,4.59,39.37,0,.67s15.6,10.82,18,12.76S441.73,449.16,439.57,449.84Z" style="fill:#ffc4c0"></path><path d="M439.57,449.84c-2.15.7-55.81-.09-58.13-1.61-.76-.47-1.17-7.09-1.39-15.75,5.42,3.07,17.07,8.81,39.05,8.34,10.81-.23,9.93-5.87,8.54-6.93,3.14,1.66,8.95,6.35,9.92,7.13C439.91,443,441.73,449.15,439.57,449.84Z" style="fill:#263238"></path><path d="M379.64,423.65,419.1,423S408,326.86,407.83,321c-.33-8.67-4.49-44.49-8-73.48,0,0,6.62-15.7-5.78-39.41H344.34s3.34,22.57,9,36.87a66.4,66.4,0,0,1,11.06,5.05s4.95,64.65,5.13,72.71C369.94,338.7,379.64,423.65,379.64,423.65Z" style="fill:#ffc4c0"></path><path d="M344.34,208.13s-18.61,98.7-19.84,107.76-2.18,29,1.86,47.27c0,0,12.07-25.89,25.07-46s30.82-39.48,30.82-39.48,4.25,29.12,10.82,49.83C397,339.82,422.79,359,422.79,359A245.85,245.85,0,0,1,411.23,319C404.85,287.91,400,247.62,400,247.57s8.47-13.86-5.93-39.44Z" style="fill:#263238"></path><path d="M382.25,277.73s-7.78,8.59-18.18,19.37c-11.68,12.13-26.44,27.17-32.75,38.55-8.09,14.61-7.32,24.17-5,27.51l2.36,3.34a140,140,0,0,1,10.48-27.77C345.32,327,371.25,302.86,382.25,277.73Z" style="fill:#37474f"></path><path d="M358.18,157.67c-.22-1.73-11.14-11.37-24.57-11.88,0,0,8.68-2.4,8.29-9.46,0,0,12.43.87,18.73-8.54a26.85,26.85,0,0,0,21.29,5.8s-.75,7.14,8.08,9.88c0,0-19.36,3.31-21.79,13.05Z" style="fill:#FB4747"></path><path d="M358.18,157.67c-.22-1.73-11.14-11.37-24.57-11.88,0,0,8.68-2.4,8.29-9.46,0,0,12.43.87,18.73-8.54a26.85,26.85,0,0,0,21.29,5.8s-.75,7.14,8.08,9.88c0,0-19.36,3.31-21.79,13.05Z" style="opacity:0.1"></path><path d="M358.53,169.85c-11.42,25.15-29.34,45.94-37.41,47.05-15,2.06-30.18-29.59-32.1-42.57-.56-3.8,25.41-8.48,27.11-4.74,3.47,7.62,7.38,13.64,8,13.64,1,0,11-8.83,23.7-20.61S361.93,162.37,358.53,169.85Z" style="fill:#ffc4c0"></path><path d="M289.72,177.86s-2.69-10.92-.86-19.21c1.27-5.73,5.42-17.9,22.08-23.33,3.95-1.29,10.49-.32,4.8,4.13-4,3.16-7.55,3.94-9.57,6.21,0,0,8.18,2.21,9.31,6.22a77.31,77.31,0,0,1,2.23,10.69,15.58,15.58,0,0,1-2,.59s.94,3.79-2.16,8.86Z" style="fill:#ffc4c0"></path><path d="M318.55,168.5l6.9,4.73-17.36-2.81,8-2.31,3.15-19.49c-4.62-1.16-7.48-4.53-6.6-10a46.3,46.3,0,0,1,4.95-14.81L331.05,126a46.39,46.39,0,0,1,.05,15.61c-.88,5.43-4.65,7.73-9.4,7.37Z" style="fill:#FB4747"></path><path d="M290.94,153.37c2.48-1.82,7.79-5.61,13.22-7.19,6-1.76,18.1-3.52,19.35.94.92,3.27-3.63,4.35-3.63,4.35s5.14.32,5.32,3.46c.17,2.86-3.4,3.48-3.4,3.48s3.09.73,2.72,3.51c-.45,3.35-6.85,1.27-10.23,4.27C313.54,166.86,290.94,153.37,290.94,153.37Z" style="fill:#ffc4c0"></path><path d="M305,152.85a25,25,0,0,1,14.83-1.47c.13,0,.17.14.05.14A61.51,61.51,0,0,0,305,152.91S304.92,152.87,305,152.85Z" style="fill:#263238"></path><path d="M306.9,158.88c2.37-.92,9.36-2.17,14.9-.59.12,0,.16.15,0,.14a66,66,0,0,0-14.92.51S306.87,158.9,306.9,158.88Z" style="fill:#263238"></path><path d="M331.48,192.64a52.12,52.12,0,0,0-3.61-5.1c-.6-.77-1.23-1.51-1.88-2.24s-1.47-1.55-2.17-2.36c-.06-.08-.17,0-.11.11.69.8,1.3,1.69,1.94,2.53s1.27,1.65,1.92,2.47c1.25,1.56,2.48,3.16,3.79,4.68A.08.08,0,0,0,331.48,192.64Z" style="fill:#263238"></path><path d="M344.31,208.28l49.76-.15s-9.12-37.75-20.85-50.28c-5.34-5.71-10.55-4.83-15-1.17-1.11.92-14.78,18.28-15.94,24.32-1,5.35,3.32,11.28,3.32,11.28Z" style="fill:#ffc4c0"></path><path d="M344.31,208.28l1.32-16s-4.35-5.93-3.32-11.27c.41-2.13,2.35-5.64,4.75-9.34,3.82.89,6.83,5.09,6.83,5.09s4.18-5.4,10.22-5.93,9.49,8,14,10.19a9.8,9.8,0,0,0,7.56.13,256.92,256.92,0,0,1,8.37,27Z" style="fill:#263238"></path><path d="M351,166.27c-.61.68-1.21,1.38-1.77,2.1.07-.12.12-.25.19-.37.19-.35.38-.7.58-1,0-.06,0-.1-.09-.05a11.61,11.61,0,0,0-.63,1c-.19.35-.36.7-.53,1.06,0,0,0,0,0,0-.27.37-.54.74-.78,1.12s-.3.46-.44.7-.42.72-.49.82.05.18.12.09.35-.5.53-.73l.45-.61,1-1.38c.65-.9,1.26-1.83,1.91-2.73C351.08,166.27,351.05,166.25,351,166.27Z" style="fill:#263238"></path><path d="M368.39,156.36c-.22,1-4.93,7.56-9.52,7.4-1.49-.06-1.55-8.22-1.55-8.22l-.14-.6-2-8.42L365,140l1.43-.86s.39,2.34.85,5.26c0,.14,0,.27.06.42s.06.32.08.47q.12.66.21,1.32c.05.34.1.67.14,1s.09.7.14,1.06A55,55,0,0,1,368.39,156.36Z" style="fill:#ffc4c0"></path><path d="M367.32,144.44a17.39,17.39,0,0,1-10.14,10.5l-2-8.42L365,140l1.43-.86S366.86,141.52,367.32,144.44Z" style="fill:#263238"></path><path d="M357.32,155.76c0,.31,1.2,4.18,1.88,4.36a27,27,0,0,0,9.11-7.22,4.6,4.6,0,0,1,.11,2.28s-5.62,6.88-9.42,7.57c0,0-1.32-1.19-1.68-4.73A13.13,13.13,0,0,1,357.32,155.76Z" style="fill:#FB4747"></path><path d="M357.32,155.76c0,.31,1.2,4.18,1.88,4.36a27,27,0,0,0,9.11-7.22,4.6,4.6,0,0,1,.11,2.28s-5.62,6.88-9.42,7.57c0,0-1.32-1.19-1.68-4.73A13.13,13.13,0,0,1,357.32,155.76Z" style="opacity:0.1"></path><path d="M343.17,133c-2.13,15,6.64,18,9.88,18.46,2.94.42,13,1.45,16.69-13.28s-2.64-20.48-9.32-21.78S345.31,118,343.17,133Z" style="fill:#ffc4c0"></path><path d="M347.37,131.14c.31.19.62.31.94.47a1.79,1.79,0,0,0,1.05.3.55.55,0,0,0,.41-.52,1.34,1.34,0,0,0-.84-1.07,2,2,0,0,0-1.4-.23A.58.58,0,0,0,347.37,131.14Z" style="fill:#263238"></path><path d="M357.81,131.71a9.66,9.66,0,0,1-1-.34,1.7,1.7,0,0,1-.95-.53.56.56,0,0,1,.08-.66,1.36,1.36,0,0,1,1.35-.15,1.93,1.93,0,0,1,1.14.84A.57.57,0,0,1,357.81,131.71Z" style="fill:#263238"></path><path d="M355,135.13s.08.06.07.1c-.18,1-.21,2.21.66,2.69,0,0,0,.06,0,.05C354.59,137.65,354.65,136.06,355,135.13Z" style="fill:#263238"></path><path d="M356.05,134.19c1.66.11,1.32,3.43-.22,3.33S354.65,134.1,356.05,134.19Z" style="fill:#263238"></path><path d="M356.68,134.43c.27.22.52.58.87.65s.74-.23,1-.54c0,0,.06,0,.05,0-.05.64-.37,1.27-1.06,1.29s-1-.59-1.11-1.24C356.45,134.51,356.57,134.34,356.68,134.43Z" style="fill:#263238"></path><path d="M349.38,134.28s-.08,0-.09.09c-.06,1-.31,2.2-1.27,2.45,0,0,0,.06,0,.06C349.17,136.83,349.49,135.27,349.38,134.28Z" style="fill:#263238"></path><path d="M348.57,133.12c-1.65-.29-2.09,3-.57,3.29S349.94,133.36,348.57,133.12Z" style="fill:#263238"></path><path d="M347.85,133.24c-.29.14-.59.43-.9.4s-.59-.41-.77-.79c0,0-.05,0-.06,0-.1.63,0,1.32.61,1.52s1-.3,1.25-.91C348,133.38,348,133.19,347.85,133.24Z" style="fill:#263238"></path><path d="M353.78,143.58c-.26.23-.52.55-.9.56a2.75,2.75,0,0,1-1.1-.33,0,0,0,0,0,0,.05,1.38,1.38,0,0,0,1.27.64,1.11,1.11,0,0,0,.87-.87C353.9,143.57,353.82,143.55,353.78,143.58Z" style="fill:#263238"></path><path d="M350,141.45a4.18,4.18,0,0,0,1.43,1.58,2,2,0,0,0,1.12.28c.86-.07,1-.82,1-1.49a4.18,4.18,0,0,0-.19-1.06A5.47,5.47,0,0,1,350,141.45Z" style="fill:#263238"></path><path d="M351.43,143a2,2,0,0,0,1.12.28c.86-.07,1-.82,1-1.49A2,2,0,0,0,351.43,143Z" style="fill:#ff9abb"></path><path d="M349.72,141.61a2.25,2.25,0,0,0,.9,1.21,2,2,0,0,1,0-1.24Z" style="fill:#fff"></path><path d="M353.1,141.05a1.93,1.93,0,0,1-.31,1.57s-.13-1-.45-1.32Z" style="fill:#fff"></path><path d="M349.92,139.37s-.39,1.51-.48,2.24c0,.06.17.12.41.16h0a3.45,3.45,0,0,0,3.49-.9c.06-.06,0-.15-.1-.11a5.22,5.22,0,0,1-3.24.54c0-.21.75-2.57.64-2.59a6.12,6.12,0,0,0-1.69.19c.72-3.17,1.94-6.2,2.61-9.37a.1.1,0,0,0-.18-.06,51.73,51.73,0,0,0-3.24,10C348.06,139.83,349.61,139.46,349.92,139.37Z" style="fill:#263238"></path><path d="M369.38,139.18c-2.37.08-2.1-8.72-2.1-8.72a7.22,7.22,0,0,1-6.85-4.62,19.6,19.6,0,0,1-12.55,1c-5-1.15-6.36-5.46-5.29-8.56,1.5-4.33,7.4-6.11,13.4-5.18,7.55,1.18,12.29,7.4,12.29,7.4s3.22,1.23,5,6C374.58,130.06,372.21,139.08,369.38,139.18Z" style="fill:#263238"></path><path d="M369,143.74a3.29,3.29,0,0,1-.71.14,2.36,2.36,0,0,1-.71,0,2,2,0,0,1-.86-.33,2.88,2.88,0,0,1-.55-.47,3,3,0,0,1-.53-.89l1.06-4s3.57-4.55,5.65-3.26S371.56,142.94,369,143.74Z" style="fill:#ffc4c0"></path><path d="M371.47,136.82s0,.06,0,.07c-1.81.62-2.83,2.21-3.58,3.87a1.41,1.41,0,0,1,2.14-.27s0,.1-.05.09a1.59,1.59,0,0,0-1.77.46,7.46,7.46,0,0,0-.9,1.36c-.09.15-.38,0-.31-.13l0,0C367.11,140,369,136.91,371.47,136.82Z" style="fill:#263238"></path><path d="M368.81,143.09a.7.7,0,1,1-1.36-.36.7.7,0,0,1,.85-.5A.7.7,0,0,1,368.81,143.09Z" style="fill:#fff"></path><path d="M370.31,142.11a.5.5,0,0,1-.61.35.5.5,0,1,1,.61-.35Z" style="fill:#fff"></path><path d="M370.34,165.13c4.8,6.15,27.87,30.43,28.82,32.83s-4.91,8.39-4.78,9.39c.49,4.05,10.18,30.86,13.61,28,4.51-3.78,25.21-29.94,22.06-41.08s-49.89-36.65-57.24-38.75S365.61,159.06,370.34,165.13Z" style="fill:#ffc4c0"></path><path d="M390.52,245.57c-2.9-2.45,1.65-4.47,1.65-4.47s-7.25,1.32-9.26-2.36,3.65-5.8,4-6c-.38.07-7.08,1.11-8.72-2.81s4.29-5.35,4.67-5.43c-.38-.05-5.43-.81-6-4.07-1-5.6,13.65-4.66,17.16-7.64,0,0-.65-7.32-.73-7.53,0,0,1.3,3,3.76,4,3.06,1.23,5.84,2.05,6.95,3.7a4.17,4.17,0,0,1-.06,5s4,0,5.43,3c.7,1.57-1.16,4.09-1.16,4.09s3.22.11,4.29,2.89c.86,2.22-1.15,4.4-1.15,4.4s3.06,1.55,3.2,4.1C414.9,241.54,396.74,250.82,390.52,245.57Z" style="fill:#ffc4c0"></path><path d="M411.14,232.7c.06,0,.12,0,.07.08a35.39,35.39,0,0,1-19.27,8.46c-.23,0-.36-.35-.11-.41A72.6,72.6,0,0,0,411.14,232.7Z" style="fill:#263238"></path><path d="M408.37,225c.06,0,.13.07.07.13-5.41,4.61-13.54,8.17-21.59,7.91-.28,0-.52-.29-.2-.31C392,232.5,402.78,228.49,408.37,225Z" style="fill:#263238"></path><path d="M382.36,224.31c7.73-.05,14.67-2.57,21.42-6.19.09,0,.15.09.09.14-2.83,2.67-7.37,4.53-11,5.68a20.51,20.51,0,0,1-10.48.65C382.22,224.56,382.19,224.32,382.36,224.31Z" style="fill:#263238"></path><path d="M411.61,232.31c1.28-1.3,2.24-3,1.66-4.86a3.63,3.63,0,0,0-1.59-2,6.37,6.37,0,0,0-2.95-.59,4.81,4.81,0,0,0,.66-5.4,3.64,3.64,0,0,0-2.18-1.48,11.47,11.47,0,0,0-3.12-.21,4.27,4.27,0,0,0,1.3-3.59,4.66,4.66,0,0,0-2.48-3.39,21.93,21.93,0,0,0-4.81-1.67,11,11,0,0,1-2.44-1,4.86,4.86,0,0,1-1.9-2.09c-.08-.16-.09,0,0,.12a5.87,5.87,0,0,0,1.07,1.61,7.62,7.62,0,0,0,1.59,1.29,31.66,31.66,0,0,0,4.54,1.88,6.57,6.57,0,0,1,3.28,2.71,3.93,3.93,0,0,1-.32,4.13c0,.06,0,.16.1.16a11.08,11.08,0,0,1,2.74.62,3.86,3.86,0,0,1,1.81,1.41,5.06,5.06,0,0,1-.29,5,8.58,8.58,0,0,1,2.83,1.07,3.62,3.62,0,0,1,1.21,1.67,4.36,4.36,0,0,1-.94,4.49s0,0,0,0h0s0,0,0,0a.05.05,0,0,0,0,0h0s1,.54,1,.54,0,0,0-.05A7.45,7.45,0,0,0,411.61,232.31Z" style="fill:#263238"></path><path d="M386.28,183.1c-1.5-1.77-3-3.55-4.53-5.28s-3.14-3.57-4.89-5.21c0,0-.06,0,0,0,.88,1.2,1.85,2.33,2.84,3.45l-.64-.46a12,12,0,0,1-1.33-1.13c-.07-.06-.18,0-.11.11a12.24,12.24,0,0,0,1.31,1.18,6.63,6.63,0,0,0,.69.49l.38.23.15.09c.39.45.8.9,1.2,1.35.77.87,1.55,1.75,2.34,2.62s1.67,1.74,2.5,2.62C386.21,183.26,386.33,183.17,386.28,183.1Z" style="fill:#263238"></path></g><g id="freepik--character-1--inject-2"><path d="M120,145.69s-3.69-9.54-26.63-13.27c0,0,8.41-19,27-24.1,21.42-5.82,35.55,6.53,35.55,6.53a75.69,75.69,0,0,0-15.48,29.82s15.33,3.94,21.07,9.08,21,13.43,23.33,12.55,20.59-14.13,23.39-16.83,12.78-9.81,19.6-11,19.87,3,24.35,8.07S277.76,315,278.19,322.11s-31.25,34.58-30.95,38.3-10,33.49-10.9,37.37-16.83,5.18-18.56,6.91-2.43,5.27-9,7.59-41.85,8-66.49,8-54.83-13.86-57.42-15.58-4.31-17.54-5.61-20.85-12.08-9.36-12.51-11.51S101.69,175.92,104,166.41C106.84,154.56,120,145.69,120,145.69Z" style="fill:#FB4747"></path><path d="M120,145.69s-3.69-9.54-26.63-13.27c0,0,8.41-19,27-24.1,21.42-5.82,35.55,6.53,35.55,6.53a75.69,75.69,0,0,0-15.48,29.82s15.33,3.94,21.07,9.08,21,13.43,23.33,12.55,20.59-14.13,23.39-16.83,12.78-9.81,19.6-11,19.87,3,24.35,8.07S277.76,315,278.19,322.11s-31.25,34.58-30.95,38.3-10,33.49-10.9,37.37-16.83,5.18-18.56,6.91-2.43,5.27-9,7.59-41.85,8-66.49,8-54.83-13.86-57.42-15.58-4.31-17.54-5.61-20.85-12.08-9.36-12.51-11.51S101.69,175.92,104,166.41C106.84,154.56,120,145.69,120,145.69Z" style="opacity:0.1"></path><g style="opacity:0.1"><path d="M86.56,405.6c-.83-.42-1.4-.73-1.67-.91-2.59-1.73-4.31-17.54-5.61-20.86a6.42,6.42,0,0,0-1.4-1.9l.81-2c2.32-10.37,13.79-82.42,16.89-83.5C98.26,295.46,90,380.76,86.56,405.6Z"></path><path d="M247.24,360.41a20.12,20.12,0,0,1-.84,4.63c-3.65-33.35-12.46-117.85-8.15-119.57,5.69-2.27,16.61,68.44,20.32,101.42C252.36,353.36,247.12,358.88,247.24,360.41Z"></path><path d="M129,419.13a146.09,146.09,0,0,1-21.74-5.36c4.48-37.44,15.86-129.06,20.41-129.7C135,283,131.51,402.37,129,419.13Z"></path><path d="M233.72,400.08c-4,1.81-11.3,2.86-14.51,3.92.4-19.2,1.8-70.58,5.48-73.74C228.19,327.26,232.12,377.24,233.72,400.08Z"></path><path d="M213.65,409.68a16.24,16.24,0,0,1-4.84,2.61,39.78,39.78,0,0,1-3.93,1.06c1.07-22.75,5.23-106.82,7.88-106.82C216.72,306.52,214.94,373.15,213.65,409.68Z"></path></g><path d="M109.84,161.15c-2.11,4.61-37,207.3-37,208.15s6.15,11,7,12.52S84,401.7,85.21,403.61a14,14,0,0,0,2.32,2.45,24.8,24.8,0,0,1-2.64-1.37c-2.59-1.73-4.31-17.54-5.61-20.86s-12.08-9.35-12.51-11.5S101.69,175.92,104,166.41c2.86-11.85,16.06-20.73,16.06-20.73s-3.69-9.52-26.63-13.26c1.46-.23,14,.9,18.72,3.25s8.78,9.94,8.78,9.94S111.94,156.54,109.84,161.15Z" style="fill:#263238"></path><path d="M278.19,322.11c.43,7.07-31.26,34.58-30.95,38.3s-10,33.49-10.9,37.38-16.83,5.17-18.55,6.9-2.44,5.27-9,7.6c-2.75,1-10.52,2.53-20.46,4,.57-.19,20.28-6.39,21.4-7.19s3.07-5.83,4.37-7.12,17.8-4.69,18.6-6.15,9.71-43.36,10.85-46.92,24.42-28.8,24.26-30.42S251.65,148.29,250.36,147s-20.07-5.71-24.88-3.65-37.58,23.19-40.87,23.89-24-12.57-27-14.5-18-7.22-18-7.22,2.15-14,4.48-17.7c2.17-3.48,10.65-11.77,11.74-12.82a76.36,76.36,0,0,0-15.37,29.69s15.34,3.94,21.08,9.08,21,13.43,23.33,12.55,20.59-14.13,23.39-16.82,12.78-9.82,19.6-11,19.87,3,24.35,8.07S277.76,315,278.19,322.11Z" style="fill:#263238"></path><path d="M211.76,451.11c-2.25.72-66.19-.11-68.61-1.69-.92-.58-1.35-9.91-1.53-21.19,0-.12,0-.23,0-.35,0-2.33-.07-4.72-.07-7.15,0-.33,0-.67,0-1l3.1-33.17,42.78.43-4.23,32.86-.05,1.3-.25,6.8,0,.7s24.34,11.27,26.81,13.28S214,450.39,211.76,451.11Z" style="fill:#ffc4c0"></path><path d="M211.76,451.11c-2.25.72-66.19-.11-68.61-1.69-.92-.58-1.35-9.91-1.53-21.19,0-.12,0-.23,0-.35,0-2.33-.07-4.72-.07-7.15,0-.33,0-.67,0-1l41.65.12-.05,1.3-.25,6.8,0,.7s24.34,11.27,26.81,13.28S214,450.39,211.76,451.11Z" style="fill:#ffc4c0"></path><path d="M211.76,451.1c-1.15.37-18.53.34-35.51,0-3.41-.07-6.81-.14-10-.23-12.11-.33-22.12-.83-23.05-1.44s-1.34-9.65-1.53-20.72c0-.16,0-.31,0-.47s0-.24,0-.36h0l41.22.08,0,.7s24.33,11.26,26.8,13.28S214,450.39,211.76,451.1Z" style="fill:#455a64"></path><path d="M211.07,448.62c-10.78-.41-54.28-1-65-.6-.08,0-.08.06,0,.07,10.68.63,54.18.89,65,.7C211.29,448.79,211.29,448.63,211.07,448.62Z" style="fill:#263238"></path><path d="M187.47,428.13c-4.23-.85-9.43-.26-12.71,2.72-.13.11,0,.29.18.25a59.06,59.06,0,0,1,12.5-2.43A.27.27,0,0,0,187.47,428.13Z" style="fill:#263238"></path><path d="M190.5,430c-4.23-.84-9.42-.26-12.7,2.72-.13.12,0,.3.17.25a59.79,59.79,0,0,1,12.51-2.43A.27.27,0,0,0,190.5,430Z" style="fill:#263238"></path><path d="M193.54,431.9c-4.23-.85-9.43-.26-12.71,2.72-.12.11,0,.29.18.25a59,59,0,0,1,12.51-2.43A.27.27,0,0,0,193.54,431.9Z" style="fill:#263238"></path><path d="M176.25,451.09c-3.41-.07-6.81-.14-10-.23-12.11-.33-22.12-.83-23.05-1.44s-1.34-9.65-1.53-20.72c0-.16,0-.31,0-.47s0-.24,0-.36h0C147.31,431.83,167.2,445.08,176.25,451.09Z" style="fill:#263238"></path><path d="M185.68,428.09H139.63s9.27-107.56,8.91-109.44c-.46-2.41-3.18-13.29-6.8-27.52-1.13-4.45-2.36-9.22-3.63-14.17-3.43-13.38-7.22-28-10.51-40.73-4.95-19.07-8.82-33.88-8.82-33.88h39s4.55,14.42,10.28,33.18c9.35,30.49,21.83,72.46,23.06,82.66C193.15,334.66,185.68,428.09,185.68,428.09Z" style="fill:#37474f"></path><path d="M183.64,420.24c-7-.15-5-.21-12-.27-3.45,0-26.07-.23-29.29.3a.07.07,0,0,0,0,.14c3.22.53,25.84.34,29.29.3,7-.06,5-.12,12-.27A.1.1,0,0,0,183.64,420.24Z" style="fill:#263238"></path><path d="M157.21,312.08c-1.52-6.66-3.77-13.19-5.74-19.72q-6-19.92-12-39.81-3-10-6.08-19.89-1.54-5-3.1-10c-1-3.27-2.19-6.51-3.12-9.81-.38-1.34-.58-.61-.1,1.1,1,3.43,1.93,6.87,2.93,10.3q3,10.17,6,20.34,6,20.25,12.08,40.45,3,10.14,6.1,20.27a82.73,82.73,0,0,1,2.49,9.8,46,46,0,0,1,.41,10.49c-.45,7.05-1.26,14.08-1.91,21.11s-1.31,14.09-2,21.14q-1.95,21-3.86,42.06c-.16,1.77-.31,3.55-.45,5.33,0,.6.85.55.92,0,1.51-13.86,2.68-27.77,4-41.66s2.59-27.63,3.88-41.44c.32-3.47.69-6.95.7-10.43A43.47,43.47,0,0,0,157.21,312.08Z" style="fill:#263238"></path><path d="M153.38,202.35c-2.71,21-7.87,60.27-11.64,88.78-8.8-34.55-23-88.78-23-88.78Z" style="fill:#263238"></path><path d="M163,451.72c-2.24.74-66.19.14-68.61-1.43-.93-.58-1.39-9.9-1.61-21.19,0-.11,0-.23,0-.35,0-2.32-.09-4.72-.1-7.14,0-.34,0-.67,0-1-.15-16.28,1-33.17,1-33.17l41.8.27-1.17,32.87,0,1.3-.24,6.8,0,.7s24.38,11.18,26.86,13.19S165.21,451,163,451.72Z" style="fill:#ffc4c0"></path><path d="M163,451.72c-2.24.74-66.19.14-68.61-1.43-.93-.58-1.39-9.9-1.61-21.19,0-.11,0-.23,0-.35,0-2.32-.09-4.72-.1-7.14,0-.34,0-.67,0-1l41.66,0,0,1.3-.24,6.8,0,.7s24.38,11.18,26.86,13.19S165.21,451,163,451.72Z" style="fill:#ffc4c0"></path><path d="M163,451.72c-2.24.74-66.19.14-68.61-1.43-.93-.58-1.39-9.9-1.61-21.19,0-.11,0-.23,0-.35l41.26-.08,0,.7s24.38,11.18,26.86,13.19S165.21,451,163,451.72Z" style="fill:#455a64"></path><path d="M162.27,449.24c-10.78-.37-54.28-.82-65-.37-.09,0-.09.07,0,.07,10.67.6,54.18.7,65,.47C162.49,449.41,162.5,449.24,162.27,449.24Z" style="fill:#263238"></path><path d="M138.6,428.83c-4.24-.83-9.43-.22-12.7,2.77-.13.11,0,.29.17.25a59.79,59.79,0,0,1,12.5-2.48A.27.27,0,0,0,138.6,428.83Z" style="fill:#263238"></path><path d="M141.64,430.71c-4.23-.83-9.43-.23-12.7,2.76-.13.12,0,.3.18.25a59.66,59.66,0,0,1,12.5-2.48A.27.27,0,0,0,141.64,430.71Z" style="fill:#263238"></path><path d="M144.69,432.58c-4.24-.83-9.43-.23-12.7,2.77-.13.11,0,.29.17.25a59.79,59.79,0,0,1,12.5-2.48A.27.27,0,0,0,144.69,432.58Z" style="fill:#263238"></path><path d="M156.55,202.35s-.9,18.67-5.17,33.46c-.35,1.23-.72,2.43-1.12,3.58A69.81,69.81,0,0,0,139,245.18s-.45,15-.9,31.78c-.5,18.73-1,39.63-.91,44.06.39,16.58-2.07,107.75-2.07,107.75l-46,.19s8.33-101.82,8.27-107.89c-.09-9.77,2.23-52.92,4-84.38,1.1-19.39,2-34.34,2-34.34Z" style="fill:#37474f"></path><path d="M133.55,420.58c-7-.12-5-.18-12.05-.22-3.44,0-26.06-.12-29.28.43a.07.07,0,0,0,0,.14c3.22.52,25.84.22,29.28.18,7-.1,5-.15,12.05-.33A.1.1,0,0,0,133.55,420.58Z" style="fill:#263238"></path><path d="M107.23,209c-.84,25.69-1.74,51.38-2.89,77.06s-2.71,51.52-4.86,77.23c-1.21,14.36-2.34,34.55-3.89,48.88a.08.08,0,0,0,.15,0c3.35-25.48,5.22-57,6.87-82.63s2.76-51.33,3.64-77c.49-14.53.87-29.06,1.3-43.59C107.56,208.8,107.24,208.82,107.23,209Z" style="fill:#263238"></path><path d="M152.18,238.28a85.08,85.08,0,0,0-13.17,6.9.15.15,0,0,0,.14.27c4.44-2.16,9-4.24,13.29-6.64A.3.3,0,0,0,152.18,238.28Z" style="fill:#263238"></path><path d="M152.43,222.44c-.3,1.64-.7,3.26-1.05,4.88s-.58,3.09-1,4.59a7.72,7.72,0,0,1-2.14,3.85c-.6.56-1.26,1.05-1.9,1.56-.34.28-.71.54-1.07.82.05-.22.08-.44.12-.66.11-.62.22-1.24.32-1.86.23-1.38.45-2.76.67-4.14.41-2.72.79-5.46,1.36-8.15a.09.09,0,0,0-.17,0c-.68,2.66-1.42,5.3-2,8-.29,1.32-1.32,7.83-1.37,8.29s-.09.95-.1,1.43a5.49,5.49,0,0,0,0,1.46c0,.12.17.1.22,0h0a5.6,5.6,0,0,0,.42-1.41c.12-.47.22-.94.31-1.41,0-.17.05-.34.07-.52.64-.39,1.24-.9,1.84-1.34s1.3-.92,1.91-1.43a7.42,7.42,0,0,0,2.34-3.65A27.53,27.53,0,0,0,152,228c.2-1.85.36-3.71.61-5.55C152.62,222.37,152.45,222.33,152.43,222.44Z" style="fill:#263238"></path><path d="M140.28,160.42c7.64,9.37,39.7,34.84,46.65,34.4,7.9-.5,42.86-14.93,45.8-23.59,1.28-3.77-13.49-26.6-17.2-24.51s-27.77,20.82-31,20.88-31.64-15.23-41.91-20C125.69,139.69,136.16,155.38,140.28,160.42Z" style="fill:#ffc4c0"></path><path d="M225.18,178.64c5.44-.69,21.83-8,25.47-10.77s13.52-11.49,11.68-14.49-4.93-.67-4.93-.67,4-4.7,1.46-7.2c-2-2-6.55,1.05-6.55,1.05s4.11-5.38,1.28-7.54c-2.57-2-6.63,2.55-6.63,2.55s3-4.85.13-6.26c-3.42-1.7-8.59,6.69-12.83,9.44-1,.63-20.43,11.29-20.43,11.29Z" style="fill:#ffc4c0"></path><path d="M246.87,141.28c-4.51,5.89-6.55,8.2-13,11.32-.13.06-.06.26.07.21,6.56-2.49,9.18-5.05,13.2-11.36C247.38,141.14,247.08,141,246.87,141.28Z" style="fill:#263238"></path><path d="M252.24,146.54c-4.52,6.05-7.51,8.11-14,11.88-.09.05,0,.21.09.16,6.66-3.16,10.41-5.3,14.13-11.94C252.64,146.34,252.45,146.26,252.24,146.54Z" style="fill:#263238"></path><path d="M257.07,152.89c-4.8,5.55-7.92,8.14-14.68,11a.13.13,0,0,0,.09.25c7.17-2.23,11.1-5.44,14.75-11.07C257.48,152.67,257.38,152.54,257.07,152.89Z" style="fill:#263238"></path><path d="M208.76,152s2.92-6,7.74-9c3.47-2.16,15.81-8.48,19.07-7.18,3.66,1.46-2.18,10.31-8.42,14.07,0,0,2.94,11.6-2.89,15.5S208.76,152,208.76,152Z" style="fill:#ffc4c0"></path><path d="M226.65,150.41c1.3,4.48,1.23,10.62-1.85,14.09-.09.1,0,.25.14.16,3.82-3.28,4-10.39,2.56-14.32C227.23,149.59,226.32,149.25,226.65,150.41Z" style="fill:#263238"></path><path d="M204.17,152.82l16.9,32.84S192.43,197.15,184.51,196,147.66,169.31,139,159.88s-9.19-18.79,4.44-12.7,39.44,18.68,41.48,19.12S204.17,152.82,204.17,152.82Z" style="fill:#fff"></path><path d="M200.28,155.16l14.48,35.11s-24.83,6.28-30.62,5.9c-6.38-.42-38.24-25.93-47.25-38s-4.11-16.05,7.27-11S184.4,165.78,185,165.8,200.28,155.16,200.28,155.16Z" style="fill:#263238"></path><path d="M199,188.28a.67.67,0,0,0-.07-.11l-.4-.37a2.08,2.08,0,0,0-1-.36,1.67,1.67,0,0,0-.77.09,1.55,1.55,0,0,0-.72.37,1.59,1.59,0,0,0-.49.63,1.47,1.47,0,0,0-.23.74,1.87,1.87,0,0,0,.17,1v0l.29.46h0l0,0,.2.19.2.19h0l.46.24,0,0a2.32,2.32,0,0,0,.27.06,1.5,1.5,0,0,0,.76,0l.5-.15a2,2,0,0,0,.83-.7,1.83,1.83,0,0,0,.24-.46,1.85,1.85,0,0,0,.09-1,2,2,0,0,0-.07-.26s0,0,0,0a.94.94,0,0,0,0-.09.38.38,0,0,0,0-.1h0a1.11,1.11,0,0,0-.3-.51Z" style="fill:#37474f"></path><path d="M207,186.49a1.05,1.05,0,0,0-.07-.11l-.4-.37a1.92,1.92,0,0,0-1-.36,1.43,1.43,0,0,0-.77.09,1.64,1.64,0,0,0-.72.36,1.62,1.62,0,0,0-.49.64,1.58,1.58,0,0,0-.24.74,2.12,2.12,0,0,0,.17,1v0l.29.46h0l0,0,.21.19.2.19h0l.47.24h0a1.29,1.29,0,0,0,.26.06,1.43,1.43,0,0,0,.77,0l.5-.15a2,2,0,0,0,.83-.69,2.08,2.08,0,0,0,.24-.47,2,2,0,0,0,.09-1c0-.08-.05-.17-.08-.26v0a.94.94,0,0,1,0-.09l0-.09h0a1.17,1.17,0,0,0-.29-.51Z" style="fill:#37474f"></path><path d="M160.8,181c-9.67-7.82-19.51-16.9-23.91-22.79-5.33-7.14-5.79-11.45-2.92-12.74Z" style="fill:#37474f"></path><path d="M102.09,224.11c.17.17,59.58-6.88,60.14-7.62.79-1-15.83-63.19-23.39-71.72-1.62-1.83-11.21-3.86-16.19,1C106.51,161.66,101.49,223.52,102.09,224.11Z" style="fill:#fff"></path><path d="M162.23,216.49a19.1,19.1,0,0,1-10.35,4.61c-1.08.14-5.43-13.59-6.11-13.59-.87,0-2,14.86-2,14.86-17.48,2.22-41.6,1.85-41.71,1.74-.59-.59,4.43-62.45,20.58-78.3,3.68,6.4,11.73,19.81,17.46,24a104.18,104.18,0,0,0,1.22-21C149.54,165.07,162.94,215.56,162.23,216.49Z" style="fill:#263238"></path><path d="M143.32,187.71l-1.17-7.48c-.19-1.23-.38-2.45-.56-3.68s-.45-2.61-.67-3.92c0,0-.08,0-.07,0,.08,1.33.14,2.64.27,4s.25,2.47.38,3.7q.42,3.83,1,7.62c.74,5,1.62,10,2.85,14.91,0,.1.19.06.18,0C144.9,197.74,144.09,192.72,143.32,187.71Z" style="fill:#37474f"></path><path d="M149.5,197a1.34,1.34,0,1,1-1.43-1.24A1.33,1.33,0,0,1,149.5,197Z" style="fill:#37474f"></path><path d="M148.11,187.64a1.33,1.33,0,1,1-1.42-1.24A1.33,1.33,0,0,1,148.11,187.64Z" style="fill:#37474f"></path><path d="M146.73,178.24A1.34,1.34,0,1,1,145.3,177,1.33,1.33,0,0,1,146.73,178.24Z" style="fill:#37474f"></path><path d="M116.53,150.63c-13.6,10.85-45.41,40.44-43.95,50.94,1.8,13,50.72,31.94,59.8,26.64,3.16-1.84-8.06-24.7-9.65-28.27,0,0-18.32-8.23-18.78-9.05-.69-1.21,12.11-18.63,19.53-31.91C130.74,146,125.51,143.47,116.53,150.63Z" style="fill:#ffc4c0"></path><path d="M118.32,204.26s7.75-7.68,13.05-12.46c3-2.67,8.44-6.79,11.51-7.76,4.59-1.45,24.72-4.56,25.58.31.78,4.4-16.86,4.88-16.86,4.88s17.76-2.06,17.72,3.42-20,3.36-20,3.36,18.29-1.7,17.36,3.94c-.71,4.26-18.92,3.37-18.92,3.37s15.72-1.35,15.19,3.06c-.59,4.88-17.46,5.11-17.46,5.11-3.25,11-9.3,14.89-13.93,17.16C130.4,229.19,118.32,204.26,118.32,204.26Z" style="fill:#ffc4c0"></path><path d="M145.42,189.54c2.08-.31,4.18-.65,6.27-.78s4.2-.19,6.3-.12a35.47,35.47,0,0,1,8.15,1c-4.82-.82-12.33-.46-14.43-.33s-4.19.16-6.29.28C145.37,189.63,145.37,189.55,145.42,189.54Z" style="fill:#263238"></path><path d="M145.76,197.13c2.66-.29,5.3-.68,8-.85s5.21-.1,7.89-.09c.2,0,.13.11-.07.12-2.67.1-5.14.39-7.81.51s-5.35.15-8,.37C145.72,197.19,145.71,197.13,145.76,197.13Z" style="fill:#263238"></path><path d="M144.87,203.69a59,59,0,0,1,12.32-.36c.2,0,.1.14-.11.14-4.1,0-7.31.05-12.18.36C144.82,203.83,144.79,203.7,144.87,203.69Z" style="fill:#263238"></path><path d="M121.27,198.73l-4,30.4S74,215.19,71.84,201.34s37.79-46.8,45.79-52,12.75-4.1,7.15,8.36c-4.57,10.16-20.1,32.41-20.1,32.81S121.27,198.73,121.27,198.73Z" style="fill:#fff"></path><path d="M117.46,196.68l-5.58,32.45s-39.48-16.25-40.69-28.3,32.89-43,45.2-51.56,12.8.33,8.3,9.36c-4.88,9.79-19.24,31.16-19.2,31.44S117.46,196.68,117.46,196.68Z" style="fill:#263238"></path><path d="M120.71,166.56c-2.79,3.84-5.45,7.77-8.07,11.72l-3.83,5.83c-1.31,2-2.56,4.08-3.92,6.07a.34.34,0,0,0,.13.46l6.23,3.09c2,1,4,2.09,6.1,2.89.1,0,.14-.11.06-.16A45.62,45.62,0,0,0,111.5,193q-2.86-1.5-5.81-2.84c1.23-1.93,2.55-3.8,3.81-5.71s2.56-3.88,3.83-5.83c.65-1,1.29-2,1.94-3a40.73,40.73,0,0,0,4.13-4,.06.06,0,0,0-.08-.08c-1.26,1.11-2.46,2.27-3.66,3.44,1.78-2.77,3.53-5.56,5.2-8.39C120.92,166.55,120.77,166.47,120.71,166.56Z" style="fill:#37474f"></path><path d="M101.5,218.12c0-.05,0-.09,0-.14l-.09-.53a2.14,2.14,0,0,0-.54-.89,1.49,1.49,0,0,0-.67-.4,1.59,1.59,0,0,0-.78-.16,1.51,1.51,0,0,0-.78.2,1.48,1.48,0,0,0-.64.43,2,2,0,0,0-.5.91v0l-.06.54h0v0c0,.09,0,.18,0,.27a2.36,2.36,0,0,0,0,.28h0v0h0c.07.16.15.31.22.47s0,0,0,0,.15.18.17.21a1.5,1.5,0,0,0,.58.51l.49.19a2,2,0,0,0,1.08,0,2,2,0,0,0,.47-.22,1.87,1.87,0,0,0,.67-.7,2.6,2.6,0,0,0,.1-.25s0,0,0,0l0-.09,0-.09h0a1.26,1.26,0,0,0,.08-.59Z" style="fill:#37474f"></path><path d="M108.9,221.65c0-.05,0-.09,0-.13l-.09-.54a1.92,1.92,0,0,0-.54-.88,2.16,2.16,0,0,0-1.45-.56,1.5,1.5,0,0,0-.78.19,1.48,1.48,0,0,0-.64.44,2,2,0,0,0-.5.9v0l-.06.54h0v0c0,.09,0,.18,0,.27s0,.18,0,.27v0h0l.21.48,0,0,.17.21a1.53,1.53,0,0,0,.57.5l.49.19a2,2,0,0,0,1.08,0,2.09,2.09,0,0,0,.48-.22,2,2,0,0,0,.67-.7c0-.08.06-.16.1-.25v0a.25.25,0,0,0,0-.09.32.32,0,0,0,0-.09h0a1.26,1.26,0,0,0,.08-.59Z" style="fill:#37474f"></path><path d="M136.85,154.52c-3.44.57-9.61-5.45-11.62-9.78-.14-.3.5-3.3,1.1-7,.36-2.23.71-4.73.86-7l14.18,4.45a36.92,36.92,0,0,0-2,8.74,4.24,4.24,0,0,0,0,.95s0,.09,0,.16C139.62,146.85,140.16,154,136.85,154.52Z" style="fill:#ffc4c0"></path><path d="M139.44,144.88s0,.1,0,.16a9.38,9.38,0,0,1-1.49,0c-8.47-.9-10.06-10.55-10.36-14.14l13.78,4.32a36.87,36.87,0,0,0-2,8.73A4.91,4.91,0,0,0,139.44,144.88Z" style="fill:#263238"></path><path d="M124.27,114.66c-1.28,5.2,2.22,19.83,6,22.93,5.53,4.49,14.19,4.48,17.9-2.08,3.61-6.36-1.29-25.34-5.52-28.12C136.47,103.31,126.17,107,124.27,114.66Z" style="fill:#ffc4c0"></path><path d="M138.74,122.77s-.07.07-.06.11c.25,1,.37,2.15-.45,2.67,0,0,0,.07,0,0C139.31,125.21,139.13,123.66,138.74,122.77Z" style="fill:#263238"></path><path d="M137.63,121.93c-1.62.23-1,3.45.46,3.24S139,121.74,137.63,121.93Z" style="fill:#263238"></path><path d="M144.12,121.75s.09,0,.1.07c.14,1,.48,2.13,1.44,2.3,0,0,0,.06,0,.06C144.53,124.22,144.1,122.72,144.12,121.75Z" style="fill:#263238"></path><path d="M144.83,120.55c1.58-.41,2.28,2.78.82,3.16S143.5,120.89,144.83,120.55Z" style="fill:#263238"></path><path d="M136.21,120.78c.46.07.89.07,1.34.1a2.21,2.21,0,0,0,1.39-.16.7.7,0,0,0,.23-.82,1.72,1.72,0,0,0-1.51-.85,2.51,2.51,0,0,0-1.77.42A.74.74,0,0,0,136.21,120.78Z" style="fill:#263238"></path><path d="M145.78,118a12.08,12.08,0,0,1-1.34-.1,2.15,2.15,0,0,1-1.34-.36.68.68,0,0,1-.11-.84,1.7,1.7,0,0,1,1.62-.62,2.54,2.54,0,0,1,1.68.67A.74.74,0,0,1,145.78,118Z" style="fill:#263238"></path><path d="M139.31,132c.28.19.58.47.95.44a2.46,2.46,0,0,0,1-.45,0,0,0,0,1,.06.05,1.4,1.4,0,0,1-1.17.77,1.1,1.1,0,0,1-.95-.74C139.2,132,139.27,132,139.31,132Z" style="fill:#263238"></path><path d="M143.07,129.48a4.14,4.14,0,0,1-1.39,1.54,1.83,1.83,0,0,1-1.09.27c-.83-.07-1-.8-1-1.45a4.56,4.56,0,0,1,.19-1A5.3,5.3,0,0,0,143.07,129.48Z" style="fill:#263238"></path><path d="M141.68,131a1.83,1.83,0,0,1-1.09.27c-.83-.07-1-.8-1-1.45A1.9,1.9,0,0,1,141.68,131Z" style="fill:#ff9abb"></path><path d="M139.92,129a2.21,2.21,0,0,0,.38,1.46,2.05,2.05,0,0,1,.43-1.17Z" style="fill:#fff"></path><path d="M143.27,129.77a2,2,0,0,1-.89,1.34,3.13,3.13,0,0,0,.09-1.4Z" style="fill:#fff"></path><path d="M139.82,128.85a3.47,3.47,0,0,0,2.54,1.1,4.29,4.29,0,0,0,1.23-.16l.23-.07.21-.07a.25.25,0,0,0,.16-.26h0a.44.44,0,0,0,0-.1h0v-.08c-.12-.77-.4-1.93-.4-1.93.3.09,1.85.48,1.75.08a52,52,0,0,0-3.16-10,.1.1,0,0,0-.18.06c.64,3.19,1.84,6.24,2.53,9.43a6.12,6.12,0,0,0-1.69-.2c-.11,0,.59,2.22.61,2.58v0a4.77,4.77,0,0,1-3.71-.46C139.82,128.7,139.75,128.78,139.82,128.85Z" style="fill:#263238"></path><path d="M145.69,111.71c-.83-1.32-2-2.66-2.84-2.51-1.77.31-1.77,3.55-1.77,3.55s-3.82-3.66-7.59-2.44S128.7,115.16,129,119c.26,3.12.86,8.86-1.56,9.2-.37.05-1,.08-1.72.11-1.45-5.09-2.2-10.82-1.49-13.68,1.9-7.68,12.19-11.36,18.42-7.27A10.67,10.67,0,0,1,145.69,111.71Z" style="fill:#263238"></path><path d="M128.94,126.6s-3.69-4.52-5.76-3.17.94,8.08,3.55,8.84a2.61,2.61,0,0,0,3.37-1.65Z" style="fill:#ffc4c0"></path><path d="M124.09,125.34s0,0,0,.06c1.84.59,2.9,2.18,3.68,3.84a1.42,1.42,0,0,0-2.16-.23s0,.11.05.09a1.61,1.61,0,0,1,1.8.43,7.94,7.94,0,0,1,.94,1.35c.1.15.38.05.3-.13l0,0C128.55,128.43,126.55,125.38,124.09,125.34Z" style="fill:#263238"></path><path d="M139.5,144.79,136,153.26l-10.46-10.89-3,3.42s10.15,17.24,10.23,16.47l3.59-7.3,5,5.16-.27-12.83Z" style="fill:#fff"></path><path d="M132.6,163a81.06,81.06,0,0,0,3.76-7.72c.75.94,5.22,5.81,5.24,5.5a67.52,67.52,0,0,0,0-7c-.12-2.11-.18-4.25-.39-6.36,0-.07-.12-.11-.14,0-.45,2,0,10.13,0,12.07l0,0c-.21-.23-4.65-4.55-4.69-4.48-.78,1.15-3.41,6.47-3.59,6.95-1.61-2.73-7.77-12.69-9.68-15.29a.08.08,0,0,0-.13.08" style="fill:#263238"></path><path d="M134.91,155.44s-6.55-4.52-8.66-3,2.45,5.24,2.21,6-.88,3.54.88,3.93,6.13-4.1,6.13-4.1Z" style="fill:#FB4747"></path><path d="M134.91,155.45l.56,2.78s-.32.34-.83.8a5.34,5.34,0,0,1-2.2-1.72c-.44-.83.31-2,1-2.78C134.34,155.05,134.91,155.45,134.91,155.45Z" style="opacity:0.2"></path><path d="M137.68,154.89s3.19-6.48,5.25-5.8,0,5.73.46,6.32,1.86,3,.72,4-5.87-1.69-5.87-1.69Z" style="fill:#FB4747"></path><path d="M137.69,154.89l.55,2.79s.36.2.88.45a5.1,5.1,0,0,0,1-2.36c0-.93-.9-1.71-1.7-2.23C138,154.33,137.69,154.89,137.69,154.89Z" style="opacity:0.2"></path><path d="M138.89,157.78c-.33.5-2,.41-2,.41s-1.51.72-2,.4-.91-3-.67-3.38,1.67-.33,2-.4,1.64-.68,2-.4S139.22,157.31,138.89,157.78Z" style="fill:#FB4747"></path></g></svg>